<svg xmlns="http://www.w3.org/2000/svg" viewBox="0 0 1236 1656"><path d="m0 0h1236v1656h-1236z" style="fill:#fefefe"/><path d="m0 1656h16 6 6l16-20 16-21 23-9 24-9 21-13 21-13-22-13-21-14-49 16-49 15-4 1h-4v34 34 6 6" style="fill:#cfcecf;stroke:#cfcecf;stroke-linejoin:round;stroke-width:.7"/><path d="m28 1656h16 8 9 7 7l18-7 18-8 2 8 3 7h3 4 9 9 4 4l22-12 23-12 32-6 32-7-8-24-7-24-5-22-5-23-6-43-6-44-7 44-7 43 1 1 1 1 2 1 2 1v2l1 2v1l1 1 2 1 1 1h1l1 6 2 6v1 1l1 1 1 1 5 10 6 9-28-1-27-2-26-9-25-10-25-4-24-4-36 16-36 16 49-15 49-16 21 14 22 13-21 13-21 13-24 9-23 9-16 21-16 20" style="fill:#a3a2a3;stroke:#a3a2a3;stroke-linejoin:round;stroke-width:.7"/><path d="m75 1656h16 8 9 4 4l-3-7-2-8-18 8-18 7" style="fill:#767476;stroke:#767476;stroke-linejoin:round;stroke-width:.7"/><path d="m149 1656h68 27 27l-7-18-6-19-32 7-32 6-23 12-22 12" style="fill:#767476;stroke:#767476;stroke-linejoin:round;stroke-width:.7"/><path d="m271 1656h12v-2-2l-2-5-2-6-4-5-3-5-1-1v-2l-2-2-2-2 14-16 15-17 1 1h1l5 1 5 1h1 1l6 2 7 1 1 2 1 1 3 1h4l3 1 3 1 44 10 45 9 55 10 56 10h3 4l36 2 36 1 34 2 34 1h6 7 1 1 8 8 1 1l3 4 4 4h10 10 3 4l33-3 33-3 32-2 33-2 30-4 31-5 48 6 48 6 4 1 4 1h1 2l2 3 3 2h38 39 35 35 16 17v-18-18-35-35-34-35-35-35-35-35-34-35-35-35-34-35-35-35-35-35-34-35-35-35-34-35-35-35-35-35-34-35-35-35-34-35-35-35-35-35-34-35-35-35-34-35-35-35-9-10h-1v3 3 5 4 5 4 4 4 5 4 5 4 4 4 5 4 5 4 4 4 5 4 5 4 5 4 4 4 5 4 5 4 4 4 5 4 5 4 4 4 5 4 5 4 5 4 4 4 5 4 5 4 4 4 5 4 5 4 4 4 5 4 5 4 5 4 4 4 5 4 5 4 4 4 5 4 5 4 4 4 5 4 5 4 5 4 4 4 5 4 5 4 4 4 5 4 5 4 4 4 5 4 5 4 5 4 4 4 5 4 5 4 4 4 3 3 45 45 4 4 5 4 4 4 5 5 4 3 5 5 4 4 5 5 4 3 5 5 4 4 5 4 4 4 5 5 4 3 5 5 4 4 5 5 4 3 5 5 9 9 9 8 1 1 37 36 6 6 3 2 6 6 3 2 7 6l-1 1h-1l-37-18-37-19-12-42-11-42-1-2v-2l-3-2-3-3-1-3v-3l-2-3-2-3-3-2-2-2-2-17-2-18 7 9 7 9 5-8 6-8 15-12 16-12 1 3 2 2 1 1 2 1 2-1 3-1v-1-2l2-3 2-3 17-18 18-19-1-2-1-3-3-1-2-1h-2-2l-2-1-2-2-2-3-1-4h-1l-1-1-11-8-10-8-10-12-9-12-5-2-4-3-2-1-1-1-3-3-2-4v-2l1-2v-1l1-2-13 3-13 2-9-9-9-9 3-11 4-11-1-1-1-2-2-1-1-1 2-2 2-3 1-1 1-2-1-4v-5-2-2l-6-2-5-2-6-17-6-18h11 12l-1-1-1-1-1-1v-1l-3-4-3-5h-1v-1l-1-2v-2l-17 5-17 5-6-4-6-5-6-25-6-26-12-20-12-20v-6-6l18 2 19 2 13-2 13-3-2-2-1-2h-2-2l-2-1-2-1-5-3-5-3h-7-6l-24-7-24-7-4-1-3-1h-1l-1-1-31-29-31-29-2 1-1 1v2 1l2 5 3 5 1 1h1v5 5l3 4 4 3 1 2 2 1 1 1h2l4 3 4 2 1 2 1 1 4 2 4 2 2 1h2v1l-1 7v7l-1-1-1-2-2-1-1-1-5-2-5-2h-2-1l-4-3-4-3-1-1v-1l-4-3-4-3-4-5-4-5v-1-1l-14-20-14-20v-4-5l-2-2-2-3 2-3 2-4 2-2 3-3-13 11-13 10h2 2l4 3 4 2 1 1 1 1 1 2 1 2-7 2-7 1 10 23 10 23-21-12-21-12-6-5-6-5-36-13-36-14 1 2 2 1 13 16 14 16-22-4-21-4-21-14-21-14-16-19-15-20-24-3-24-3 1 1h2l2 2 3 1 2 2 3 2 2 3 2 2 2 3 2 2 1 3 2 3-1 26-1 25 2 5 3 4-9 4-9 3-17-15-16-16h-2l-1-1-2-3-1-3-1-3-1-3-2-3-1-3-1-3-1-4-1-3-1-4-2-3-1-3 9 26 9 26 20 18 21 18 23-5 23-5-3-6-2-7 3 12 3 12 6 11 6 10 1 8 1 8 5 6 5 6-10 6-10 5 22 9 23 8-4 1h-4l7 11 8 10-2 10-1 9 4 9 5 9 1 3 1 3v3l1 2-1 5-1 5-1 2v2l1 5 1 4 20 5 21 5-10 16-10 15 2 2 2 2 17 17 17 17 1 1h1 10l11-1 16 2 16 2 9-5 10-5-3 23-3 23 12-6 13-6 1 30 2 29 13 18 14 17-2 38-1 37 1 2 1 2v1l1 1 1 7 1 6 2 28 3 28-1 7v7 3 2l1 4 1 3v4l1 4v2 1 7l1 6v1 1l-1 6v6 1 1l-3 5-2 5v1 1l-11 34-10 33v1 1l-1 2-1 1v1 1l1 3 2 3 2-1 2-2h2l2-1 4-2 5-3 12-13 13-14-1-22v-23l1 2 1 2 8 27 9 27 1 2 1 2-2 5-1 4v3 2l-2 2-1 1v2 2h12 13l-2-1-2-2-3 1h-2l11-13 11-13 14-15 15-15 1-18 1-18 14 15 14 14-2 10-1 10 4-30 4-31-2-1-1-1-1-1v-2l5-2 5-2h1l2-1 2 1h3 1 2 1 1l-1 3v3l-1 1v2l1 2 13-11 13-12 38 7 39 7 14 21 14 20v1 1 2 1 7 7 2 1 8 7 9 8 2 1 7 7 2 1 8 7 2 1 7 7 2 1 8 7 9 8 2 1 7 7 2 1 8 7 2 1 7 7 2 1 8 7 9 8 2 1 7 7 2 1 8 7 2 1 7 7 2 1 8 7 9 8 2 1 7 7 2 1 8 7 2 1 7 7 2 1 8 7 9 8 2 1 7 7 2 1 8 7 2 1 7 7 2 1 6 6 48 48 2 2 5 5 4 3 5 5 4 4 5 5 4 3 5 5 4 4 5 4 4 4 5 5 3 2l-25-3-25-3-26-4-26-5-8-1-7-1h-3l-2-1-36-13-36-14-43-10-42-10-1 2v1l5 1 5 1 1 1h1l1 1 2 1 2 3 2 2-10 10-9 10-29 5-29 4h-4-4l-4 2-4 1h-3-3-2-2l-22-5-21-5 18-39 19-39-1-3v-3l-1-5v-5l-1-1v-2l-1-1-1-2-4-2-4-3h-2-2-1-1-1l-1 2v2l-1 2v2l2 3 2 2 1 2 2 2v2 1l-10 25-9 24 2-12 3-13-13 18-12 17-43 17-42 17-9-2-8-2h-27l-26-1-31-4-30-5-42-6-41-6-38-3-38-3-22-3-22-3h-1-1l-53-10-53-11h-2-2l-19-19-19-19-6-28-5-29 1-4 2-4v-2-2-1-2l-3 1-3 1-4 5-3 5 6 44 6 43 5 23 5 22 7 24 8 24 6 19 7 18" style="fill:#020203;stroke:#020203;stroke-linejoin:round;stroke-width:.7"/><path d="m283 1656h8l-1-3v-4l-2-1-1-2-2-3-2-4-2-1-1-2-4-2-4-3 3 5 4 5 2 6 2 5v2 2" style="fill:#4f4d4f;stroke:#4f4d4f;stroke-linejoin:round;stroke-width:.7"/><path d="m291 1656h16 6 6l3-28 3-28-1-1-1-2-7-1-6-2h-1-1l-5-1-5-1-16 16-15 16 2 2 2 2v2l1 1 4 3 4 2 1 2 2 1 2 4 2 3 1 2 2 1v4l1 3" style="fill:#767476;stroke:#767476;stroke-linejoin:round;stroke-width:.7"/><path d="m319 1656h61l-11-11-10-11 14 3 14 2-25-18-24-18-3-1-3-1h-4l-3-1-3 28-3 28" style="fill:#a3a2a3;stroke:#a3a2a3;stroke-linejoin:round;stroke-width:.7"/><path d="m380 1656h68 26 26l-18-6-18-6-19-11-18-11-45-9-44-10 24 18 25 18-14-2-14-3 10 11 11 11" style="fill:#767476;stroke:#767476;stroke-linejoin:round;stroke-width:.7"/><path d="m500 1656h4l17-7 17-7-56-10-55-10 18 11 19 11 18 6 18 6" style="fill:#4f4d4f;stroke:#4f4d4f;stroke-linejoin:round;stroke-width:.7"/><path d="m504 1656h16 8 9 9 9 3 3l-1-2v-2l-2-1-1-2-4-1-4-2-2-2-2-2h-4-3l-17 7-17 7" style="fill:#767476;stroke:#767476;stroke-linejoin:round;stroke-width:.7"/><path d="m561 1656h16 1 1v-2-2h4 5l2-1 3-2 3 2 4 1 2 2 3 1 1 1h2 37 38 13 13l-3-2-2-2h-5-4-4-4l-3-2-3-2h2 2l-34-1-34-2-36-1-36-2 2 2 2 2 4 2 4 1 1 2 2 1v2l1 2" style="fill:#4f4d4f;stroke:#4f4d4f;stroke-linejoin:round;stroke-width:.7"/><path d="m579 1656h16 6 7-2l-1-1-3-1-2-2-4-1-3-2-3 2-2 1h-5-4v2 2" style="fill:#767476;stroke:#767476;stroke-linejoin:round;stroke-width:.7"/><path d="m709 1656h16l-4-4-3-4h-1-1-8-8-1-1-7-6-2-2l3 2 3 2h4 4 4 5l2 2 3 2" style="fill:#2b2a2c;stroke:#2b2a2c;stroke-linejoin:round;stroke-width:.7"/><path d="m752 1656h68 26 26l2-3 3-4 1 2 2 1 4 1 5 1h3 3l1-1 2-2 27-3 28-3 2 2 2 2 1 3 2 2v1 1h3 4l2-2 2-2-1-2v-2l5-1 5-1h3 3v5l1 4v1h8 8 7 8v-1l1-1 6-2 6-3h1 1 3 4l-48-6-48-6-31 5-30 4-33 2-32 2-33 3-33 3" style="fill:#2b2a2c;stroke:#2b2a2c;stroke-linejoin:round;stroke-width:.7"/><path d="m872 1656h16 8 9 9 9 8 9 9 9 1 1v-1-1l-2-2-1-3h-2l-2-1h-6-6l-2 1h-2l-6 1h-6-3-2-6-6l-2 1h-2-3-3l-2 2-1 1h-3-3l-5-1-4-1-2-1-1-2-3 4-2 3" style="fill:#4f4d4f;stroke:#4f4d4f;stroke-linejoin:round;stroke-width:.7"/><path d="m967 1656h16 2 2v-1l-1-4v-5h-3-3l-5 1-5 1v2l1 2-2 2-2 2" style="fill:#4f4d4f;stroke:#4f4d4f;stroke-linejoin:round;stroke-width:.7"/><path d="m1018 1656h16 8 9 2 3l-3-2-2-3h-2-1l-4-1-4-1h-4-3-1-1l-6 3-6 2-1 1v1" style="fill:#4f4d4f;stroke:#4f4d4f;stroke-linejoin:round;stroke-width:.7"/><path d="m898 1651h6 2l2-1h6 6 2 3 6l6-1h2l2-1h6 6l2 1h2l-2-2-2-2-28 3-27 3" style="fill:#020203;stroke:#020203;stroke-linejoin:round;stroke-width:.7"/><path d="m267 1624l31-32h-1l-1-1-15 17-14 16" style="fill:#4f4d4f;stroke:#4f4d4f;stroke-linejoin:round;stroke-width:.7"/><path d="m1235 1618l-1-1-1-2-1-2-2-2-1-2-1-4-1-4-1-3v-3-4-5l-1-2-1-2-1-5v-5l-1-2-1-3-3-2-3-3-2 1-2 1-4 2-4 1-1 3v3l-2 3-2 3-2 2-2 1-2-3-2-4-1-2v-3l-1-4-1-5v-3-4-5-6-3-3l-1-5v-5-3-4-5-5-3-4l-1-5v-5l-1-2v-3-5-6-3-4-5-6-3-3l-1-5v-5-3-4-5-5-3-4l-1-4-1-5v-3-3-5-6-3-4-5-6-3-3l-1-5v-5-3-4-5-5-3-4l-1-4-1-5v-3-3-5-6-3-4l-1-5v-5-3-3-5-6l-1-2-1-3v-5-5-3-4-5-6-3-3-5-6-3-4l-1-5v-5-3-3-5-6-3-4l-1-4-1-4v-3-4-5-6-3-3l-1-5v-5-3-4-5-6-3-3l-2-4-1-4v-3-4l-1-4v-5h-3l-3-1-3 3-2 3-1 2-1 2-3 3-2 3-1 3-1 2-2 4-2 3-1 2-1 2-2 4-2 3-2 2-1 2-2 3-2 3-2 2-1 2-3 3-2 3-1 2-1 2-3 3-2 3-3 1-2 1-1-1-1-2v-2l1-3v-5-6l1-2 1-3-1-4-1-4 1-2 1-3v-3-4l-1-2-1-2 1-4 2-4v-3-4l1-4 2-4 1-1 2-2 1-4 2-4 1-2 1-3 2-3 2-3 1-2 2-2 2-3 3-3 1-1 2-2 1-4 2-4 2-1 3-1 1-4 2-4 2-1 2-1 1-4 2-4 1-2 2-2v-4l1-5 1-2 1-3v-5l1-5v-3-3-5l1-5v-3-4-5-6-3-3-5-6-3-4l-1-4v-5-2-3-5-6l1-1 2-2h3 4l2 2 2 1 2 4 2 3v3 3 6 5 4 3 5l1 4v4 3l1 5 1 4v3 3 6 5 3l1 3v6 5 3 3l1 5 1 4v4 3 5l1 4v4 3 6 5l1 2 1 2v6 5 4 3 6 5 3 3 6 5 3l1 3v5 5 4 3 6 5 3 3l1 5 1 4v4 3 6 5 3 3 5l1 5v4 3 5 5 4 3l1 5 1 4v3 3 6 5 4 3 5l1 5v3 3 6 5l1 3 1 2v5 5 4 3 6 5 3l1 2v6 5 4 3l1 5 1 4v3 3 6 5 4 3 5l1 4v4 3 6 5l1 2 1 2v6 5 4 3 6 5 3 3 5l1 5v4 3 5 5 3l1 3v5l1 5v3 3 6 5 4 3l1 5 1 4 1 2 1 2 3 3 3 2h3l3-1h4l5-1h1l1-1v-48-48h-1v-1l-1-1-1-1v-4-5-4-4l-1-4v-4-4-5l-1-3-1-3v-4-5l-1-4v-4-4-4l-1-3-1-4v-4-5l-1-4v-4-4-4l-1-3-1-4v-4-5-4-4l-1-4v-4-4-5l-1-3v-4l-1-4v-4-4-5l-1-4v-4-4-4l-1-3-1-4v-4-5l-1-3v-4-4-5l-1-3-1-4v-4-4-4-5-4-5l-1-4v-4-4-4l-1-3-1-4v-4-5l-1-3v-4-4-5-4-5l-1-3-1-3v-4-5-4-5l-1-4v-4-4-4l-1-3-1-4v-4-5-4-4-4-5l-1-4v-4-4-4-4-5l-1-4v-4l-1-4v-4-4-4-4-5l-1-4v-4-4-4-4-5-4-5l-1-3v-4-3-4l1-3 2-3h3 4l3-1 3-1 2 3 2 2v4l1 4 1 3 2 2 3 1h3l2 1 3 1-14-20-14-21-39-7-38-7-13 12-13 11 1 25 2 25-16 17-16 16h-3-3-6l-6-1h-3-2l-16 16-15 15 1 2 2 2v1 1l-2 6-1 6 2 1h2v-1l1-1 1-5 1-5v-1-2l1-5 2-6v-1l1-2 4 1 4 1h1 2l4 3 4 3 1 1h2l6 1 6 1v1l1 1 5 2 5 2h1 2l4-3 4-3h1l2-1 3-3 4-4h1l1-1 3-4 3-4v-1l1-2 2-5 2-5v-1l1-1 2-2 2-2v2 1l-2 5-2 5v2 2l-3 5-2 4-1 1v1l-2 6-1 5-1 1-1 1-2 5-2 5v2 1l-3 5-2 4-1 1v1l-3 4-3 4v2 2l-3 4-3 4v2 1l-3 4-3 4-1 2v1l-3 5-2 4-1 1v1l-3 5-2 4-1 1h-1l-2 5-2 5-1 1-1 1-3 5-2 4-1 1v1l-3 5-2 4-1 1-1 1-2 6-1 5v2 1l-1 6-1 6v2 1l-1 7v6 2 2 7 7 2 1 7 7 2 2 7l1 6v2 1 7 7 2 1 6 6 2 2 7 7 2 1l-1 7v6 2 2 7 7 2 1 7 7 2 1 7 7l-1 1-1 1-1 7v6l-1 1h-1l-3 5-2 4-1 2v1l-2 5-2 5-1 1h-1-2-2v2 1l-1 6-1 6-1 2v1l-3 4-3 4-1 1v1l-3 4-3 4-2 1h-1l-2 5-2 5-1 1v1l-2 3-2 3-1 1v1l-3 5-2 4-1 1-1 1-3 4-3 4-1 1h-1l-4 4-3 3v2 2l-4 4-3 3-1 1v1l-4 4-3 3-1 1h-1l-4 4-3 3-1 1-1 1-4 4-3 3h-2-1l-4 4-3 3-1 2v1l-5 1h-5-2-1l-6-3-5-3-6-3-6-3-5-4-4-4-3-6-2-6-3-3-3-4v2l1 1v5l1 5v3l1 3 1 1h1l29 18 30 18h2 3l6 3 6 2 6 1h7l42 10 43 10 1-31 1-31-1-48-1-49 14-18 15-18 7 25 8 25 2 31 3 30 4 26 5 26 7 30 7 29 2 1h3l7 1 8 1 10-42 11-42v-24l1-25-1-32v-32l-2-33-2-33 8 6 9 5 4 24 4 23v33l1 32v31l1 31 4 44 4 43 25 3 25 3" style="fill:#cfcecf;stroke:#cfcecf;stroke-linejoin:round;stroke-width:.7"/><path d="m1234 1617l1 1v-2-3-5-5-4-4-4-5-4-4-5-5-3-4-5-5-4-4-5-5-3-4-5-5-2-2l-1 1h-1l-5 1h-4l-3 1h-3l-3-2-3-3-1-2-1-2-1-4-1-5v-3-4-5-6-3-3l-1-5v-5l-1-3v-3-5-5-3-4l-1-5v-5-3-3-5-6-3-4-5-6l-1-2-1-2v-5-6-3-4l-1-4v-5-3-4-5-6-3-3l-1-4-1-5v-3-4-5-6l-1-2v-3-5-6-3-4-5-5l-1-2-1-3v-5-6-3-3l-1-5v-5-3-4-5-6-3-3l-1-4-1-5v-3-4-5-5-3-4l-1-5v-5-3-3-5-6-3-4l-1-4-1-5v-3-3-5-6-3-4-5-5l-1-3v-3-5-6-3-3-5-6-3-4-5-6l-1-2-1-2v-5-6-3-4l-1-4v-5-3-4l-1-4-1-5v-3-3-5-6l-1-3v-3-5-6-3-3l-1-4-1-5v-3-4l-1-4v-5-3-4-5-6-3-3l-2-3-2-4-2-1-2-2h-4-3l-2 2-1 1v6 5 3 2 5l1 4v4 3 6 5 3 3 6 5 4 3l-1 5v5 3 3l-1 5v5l-1 3-1 2-1 5v4l-2 2-1 2-2 4-1 4-2 1-2 1-2 4-1 4-3 1-2 1-2 4-1 4-2 2-1 1-3 3-2 3-2 2-1 2-2 3-2 3-1 3-1 2-2 4-1 4-2 2-1 1-2 4-1 4v4 3l-2 4-1 4 1 2 1 2v4 3l-1 3-1 2 1 4 1 4-1 3-1 2v6 5l-1 3v2l1 2 1 1 2-1 3-1 2-3 3-3 1-2 1-2 2-3 3-3 1-2 2-2 2-3 2-3 1-2 2-2 2-3 2-4 1-2 1-2 2-3 2-4 1-2 1-3 2-3 3-3 1-2 1-2 2-3 3-3 3 1h3v5l1 4v4 3l1 4 2 4v3 3 6 5 4 3 5l1 5v3 3 6 5 4 3l1 4 1 4v4 3 6 5 3 3 5l1 5v4 3 6 5 3 3 6 5 4 3 5 5l1 3 1 2v6 5 3 3 5l1 5v4 3 6 5 3 3l1 5 1 4v4 3 5 5 4 3 5l1 5v3 3 6 5 4 3 6 5 3 3l1 5 1 4v4 3 5 5 4 3 5l1 5v3 3 6 5 4 3 6 5 3l1 2v5l1 5v4 3 5 5 4 3 5l1 5v3 3 6 5 4 3l1 5 1 4v3l1 2 2 4 2 3 2-1 2-2 2-3 2-3v-3l1-3 4-1 4-2 2-1 2-1 3 3 3 2 1 3 1 2v5l1 5 1 2 1 2v5 4 3l1 3 1 4 1 4 1 2 2 2 1 2 1 2" style="fill:#fefefe;stroke:#fefefe;stroke-linejoin:round;stroke-width:.7"/><path d="m1185 1612l-8-87-1-31v-31l-1-32v-33l-4-23-4-24-9-5-8-6 2 33 2 33v32l1 32-1 25v24l-11 42-10 42 26 5 26 4" style="fill:#a3a2a3;stroke:#a3a2a3;stroke-linejoin:round;stroke-width:.7"/><path d="m227 1602l6-7-2-6-2-7-5 2-5 2-8 1h-8l4 5 4 5 7 2 7 1 1 1 1 1" style="fill:#cfcecf;stroke:#cfcecf;stroke-linejoin:round;stroke-width:.7"/><path d="m871 1598l-8-71 1-1 1-1v-4-4l1-3 1-3h-1l-1-1-19 39-18 39 21 5 22 5" style="fill:#2b2a2c;stroke:#2b2a2c;stroke-linejoin:round;stroke-width:.7"/><path d="m811 1562v-29-2l1-3 2-6 2-7 2-7 2-7v-3-4l-19 40-19 39-37 10-36 9 8 2 9 2 42-17 43-17" style="fill:#2b2a2c;stroke:#2b2a2c;stroke-linejoin:round;stroke-width:.7"/><path d="m1113 1600l-14-59-5-26-4-26-3-30-2-31-8-25-7-25-15 18-14 18 2-4 2-4 9 6 9 5 8 23 9 23-18 27-17 26-1-2-1-3-1 31-1 31 36 14 36 13" style="fill:#a3a2a3;stroke:#a3a2a3;stroke-linejoin:round;stroke-width:.7"/><path d="m871 1598h4 3 3l4-1 4-2h4 4l28-4 29-5h1l9-10 10-10-38-1-38-2-18-18-17-18 4 36 4 35" style="fill:#4f4d4f;stroke:#4f4d4f;stroke-linejoin:round;stroke-width:.7"/><path d="m897 1595l58-9h-1l-29 5-28 4" style="fill:#2b2a2c;stroke:#2b2a2c;stroke-linejoin:round;stroke-width:.7"/><path d="m782 1573l8-52-16 18-15 18-12 2-12 1-25 7-24 6-48 1h-48l-39-2-39-2 41 6 42 6 30 5 31 4 26 1h27l36-9 37-10" style="fill:#4f4d4f;stroke:#4f4d4f;stroke-linejoin:round;stroke-width:.7"/><path d="m686 1573l49-13 12-1 12-2 15-18 16-18 11-24 11-25-17 24-17 23-20-8-20-8-5-20-5-21-1-15-1-15-6-5-6-6 13-10 13-10 2-16 3-17 5-24 5-25 9-13 10-14-9-22-9-23 11-7 12-8-8-16-8-17-23-4-22-5-23 4-22 3-9 15-9 14-13-15-13-15 3-8 3-9-10-12-9-13-22-7-21-8-6 18-5 18-2 21-2 21v23 22l-1 14v13l-4 21-3 20-19-12-18-12-9 10-9 10-5 19-4 19 19 13 19 12 4-22 4-22 22 4 23 3 16-13 16-14 14-11 15-12 13-4 14-4-1-11-1-11 16-2 16-2 14-7 14-8-3-16-2-17 13 7 13 6 2 28 2 28-4 25-3 24-22 13-21 13-17 6-17 6-2 2-2 2-1 1h-1l-6 2-5 2h-1-1l-6 2-6 1v1l-50 1-50 1 15 14 15 14 6 14 6 13 12 11 13 11 2-7 2-7v12l1 11 11 10 11 9 11-9 12-10 4-11 4-12 19-7 20-8-2 14-1 13 10 18 10 17-12 12-11 11-7 9-7 8-37 12-36 11-27-2-27-3-27-1-26-2-31 4-30 4 38 3 38 3 39 2 39 2h48l48-1" style="fill:#767476;stroke:#767476;stroke-linejoin:round;stroke-width:.7"/><path d="m820 1494v-8-1-1l1-6 1-7 1-1 1-1-1-3v-4-3-3l-3-5-3-5-4-3-3-3v3 2l1 4 1 3v5 4 3 3 3 2l-11 25-11 24-4 26-4 26 19-39 19-40" style="fill:#020203;stroke:#020203;stroke-linejoin:round;stroke-width:.7"/><path d="m235 1573l-2-3-2-3-2-4-2-2-1-2-1-2-1-3-1-1-1-1v-1-1l-2-6-1-6h-1l-1-1-2-1-1-1-24-4-24-4-20-5-19-5 1 1 1 1 2 3 2 3v7 6l-3-3-2-4-2 1-1 1-1 2-1 2h-4l-4-1h-1v-1-1-1l-38 10-38 10-19 5-19 4v7 7h4l4-1 36-16 36-16 24 4 25 4 25 10 26 9 27 2 28 1" style="fill:#020203;stroke:#020203;stroke-linejoin:round;stroke-width:.7"/><path d="m974 1566l-4-5-2-1-1-1-26-5-25-5 5-1 5-1-30-18-29-18-1 3-1 3v4 4l-1 1-1 1 17 18 18 18 38 2 38 1" style="fill:#767476;stroke:#767476;stroke-linejoin:round;stroke-width:.7"/><path d="m677 1541l14-17 11-11 12-12-10-17-10-18 1-13 2-14-20 8-19 7-4 12-4 11-12 10-11 9-11-9-11-10-1-11v-12l-2 7-2 7-13-11-12-11-6-13-6-14-15-14-15-14v-1h-2l-1-1h-2-1-2-1l-19-12-19-13 4-19 5-19 9-10 9-10 18 12 19 12 3-20 4-21v-13l1-14v-22-23l2-21 2-21 5-18 6-18 21 8 22 7 9 13 10 12-3 9-3 8 13 15 13 15 9-14 9-15 22-3 23-4 22 5 23 4 8 17 8 16-12 8-11 7 9 23 9 22-10 14-9 13-5 25-5 24-3 17-2 16-13 10-13 10 6 6 6 5 1 15 1 15 5 21 5 20 20 8 20 8 17-23 17-24v-2-3-3-3-4-5l-1-3-1-4v-2-3l-7-17-6-17 4-23 5-24 7-27 7-27 1-21 2-21 6-27 6-27 3-19 4-19 5-17 5-17 3-14 4-15 13 5 14 5v32l1 32 5-30 5-31 19-19 19-20 6-11 7-11 18-20 18-21v-2-2l-29-4-28-5v-1-1l10-33 11-34v-1-1l-7-22-7-23-9-25-8-25-11 1-11 1-7 19-6 19-22 9-21 8-11 7-10 6-19-14-18-14h-9l-8-1-8 3-8 2-15-9-15-9-7-7-6-8-17-33-16-33-1-3-1-3-1-1v-1-6-7-1-2-6-6-2-3-4l1-4 11-20 12-21 22-11 23-12 19-4 19-5 28 6 28 6-8-17-7-18-13-16-12-16-14-16-13-17-17-17-17-17-2-20-2-21-12-19-11-20-19-15-18-15-19-12-19-13-3-1-3-1-30-1-30-2-24-3-24-4-19-7-18-8-14-6-14-6 9-4 9-5 16-17 17-18-16-1-16-2 11-30 11-30v-1l1-2-1-1v-2-2-3l1-5 1-5v-1l-13 23-12 22-19 15-19 15v-22l1-22 15-19 16-20-6-11-5-11-19 16-19 16-18 17-17 17-15 16-14 15-15 14-15 14-14 20-13 20-12 18-12 18-21 14-20 14-21 15-20 14-15 13-14 12-8 25-7 25-9 22-8 21-6 28-5 27 9-23 9-23 16-8 16-9 10-13 10-14-6-16-5-17 15-13 15-14 12-15 12-15 16-13 17-14 15-17 15-18 16-16 16-16 14-12 14-13 12-6 12-6 13 9 14 8 3 27 4 27-20 16-19 15-7-11-6-11-7-1-6-2-7 18-6 18 5 12 6 11-25 18-24 17-2 3-1 3v2 1l-11 21-11 20-2 19-1 18-8 22-7 21-10 19-10 18-3 18-2 17 2 27 3 27-12 23-12 23-14 12-14 12-1 16-1 16h-20l-19-1 1 20 2 19 5 25 6 25 4 26 5 25 5 26 6 25 20 14 20 13 11-19 11-19-14-4-14-5-11-18-10-18-1-1v-1l-2-3-2-4-1-2v-3l-1-3-1-3-4-1-3-1-1-22v-22l2 2 2 2 3-28 3-28 7-15 7-15 19-15 20-15 2-26 3-27 9-24 9-25 2-31 3-32 9-22 10-23 9-25 9-26 11-24 11-24 15-19 15-20 17-18 17-18 19-16 19-16 31 1h31l25 8 26 7 31 2 32 2 21 13 21 13 7 23 8 22 13 19 14 19 13 13 13 13 13 13 13 12 7 19 7 19-9 18-9 18-25 7-25 6-23 3-22 2 6 13 7 13 2 24 2 24-12 18-12 17-12 22-11 21v27 27l-9 21-8 21-12 24-11 23-3 23-2 23 6 25 6 25-27 7-26 6 7-15 8-15-6-16-5-17-17 14-16 14-2 19-2 19-21 15-20 14 9 13 10 13 25-9 26-10 17 11 17 10 1 20 2 19-18 14-18 14-19 7-18 7-21-4-20-5-20 4-19 4 5 18 5 18 6 10 6 10 12 23 12 22 7 17 8 16 6 15 6 14 22 13 22 13 6 16 7 15-14 21-14 20-17 19-16 18-37 23-36 22 22 3 22 3 30-4 31-4 26 2 27 1 27 3 27 2 36-11 37-12" style="fill:#a3a2a3;stroke:#a3a2a3;stroke-linejoin:round;stroke-width:.7"/><path d="m183 1541l-30-2 20 14 21 14-6-13-5-13" style="fill:#2b2a2c;stroke:#2b2a2c;stroke-linejoin:round;stroke-width:.7"/><path d="m235 1573l-11-19 1 3 1 2 1 2 2 2 2 4 2 3 1 2 1 1" style="fill:#cfcecf;stroke:#cfcecf;stroke-linejoin:round;stroke-width:.7"/><path d="m811 1562l25-35v-1l1-2 1-1 1-1 2-4 3-4v-2l1-2 2-3 2-4h1v-1-2l-2-2-1-2-18 19-18 18v15 14" style="fill:#4f4d4f;stroke:#4f4d4f;stroke-linejoin:round;stroke-width:.7"/><path d="m967 1559l-2-1-5-1-5-1v-1l1-2h-7l-6-1-6-2-6-3h-3-2l-5 1-5 1 25 5 26 5" style="fill:#a3a2a3;stroke:#a3a2a3;stroke-linejoin:round;stroke-width:.7"/><path d="m38 1553h-38v2 2 3 2l19-4 19-5" style="fill:#4f4d4f;stroke:#4f4d4f;stroke-linejoin:round;stroke-width:.7"/><path d="m231 1563l3-10-3-6-2-6-1 8v7l1 4 2 3" style="fill:#fefefe;stroke:#fefefe;stroke-linejoin:round;stroke-width:.7"/><path d="m390 1558l-40-28-33 4-33 3 53 11 53 10" style="fill:#a3a2a3;stroke:#a3a2a3;stroke-linejoin:round;stroke-width:.7"/><path d="m390 1558h2l36-22 37-23 16-18 17-19 14-20 14-21-7-15-6-16-22-13-22-13-6-14-6-15-8-16-7-17-12-22-12-23-6-10-6-10-5-18-5-18 19-4 20-4 20 5 21 4 18-7 19-7 18-14 18-14-2-19-1-20-17-10-17-11-26 10-25 9-10-13-9-13 20-14 21-15 2-19 2-19 16-14 17-14 5 17 6 16-8 15-7 15 26-6 27-7-6-25-6-25 2-23 3-23 11-23 12-24 8-21 9-21v-27-27l11-21 12-22 12-17 12-18-2-24-2-24-7-13-6-13 22-2 23-3 25-6 25-7 9-18 9-18-7-19-7-19-13-12-13-13-13-13-13-13-14-19-13-19-8-22-7-23-21-13-21-13-32-2-31-2-26-7-25-8h-31l-31-1-19 16-19 16-17 18-17 18-15 20-15 19-11 24-11 24-9 26-9 25-10 23-9 22-3 32-2 31-9 25-9 24-3 27-2 26-20 15-19 15-7 15-7 15-3 28-3 28v7l1 7v2 2 7 6 2l1 1 1 4 1 4 1 3 1 3v3l1 2 2 4 2 3v1l1 1 14 16 15 15v-1l-2-1-1-2-3-2-3-3-2-1-1-2-3-3-2-4-2-1-1-2-2-4-1-4-2-1-1-2-2-4-1-4-1-2v-3l-2-4-1-5v-2l1-3-1-5v-5l-1-2-1-2 1-4 2-5 1 2 2 1 2 3 3 3 1 2 1 2 3 2 4 2 1 2 2 1 2 4 3 3 2 1 2 1 3-2 4-2v-2l1-3h4 4v3l1 2 3 2 4 2h3 3l2-3 3-3v-3-3l-1-5-1-5-1-2-1-2-2-3-2-4-1-2-1-2-2-4-1-5-1-2v-3l1-4 2-4 1-1 2-2 1-4 2-4v-3-3-5-5-3-3l-1-4-1-5v-2l1-3v-5l1-6v-2-3l1-5 1-5v-2l1-3 1-4 2-4v-2l1-3 1-4 2-5 1-2 1-2 1-4 2-4v-2l1-3 1-5 1-5v-2l1-2v-6-6-2l1-3v-5-6-1l1-2v-5l1-6v-3-3l1-4 1-5v-2l1-3 1-5 1-5v-2l1-2 1-5 1-5v-2l1-3 1-4 1-5v-2l1-3 1-4 2-5 1-2 1-2 1-4 2-4v-2l1-3 1-4 2-5 1-1 1-2 1-4 2-5v-2l1-3 1-4 2-4 1-2 1-2 1-4 2-5 1-2 1-2 1-4 2-4v-2l1-3 1-4 2-5v-2l1-2 1-5 1-5v-2l1-3 1-4 2-4 1-2 1-2 1-5 1-5 1-2 1-2 1-4 2-4 1-2 1-2 2-4 2-4 1-1 1-2 2-4 2-4 1-2 1-2 2-3 2-4 1-2 1-2 2-3 3-4 1-1 2-2 2-3 3-3 1-2 1-2 3-2 3-3 1-1 2-2 3-3 3-3 2-1 2-1 3-2 3-3 1-1 2-2 4-2 4-2 2-1 2-1 4-1 4-2 1-1 2-2 4 2 4 1 1 2 2 1 4 2 5 1v3l1 2 2 4 2 3 1 2 2 1 1 5 2 4v3 3l-1 5-1 4 1 2 1 2-2 4-1 4v3 3l-3 4-2 3-2 2-1 1-2 4-1 4-2 1-2 1-3 3-3 3-2 1-2 1-2 4-1 4 2 1 2 1 2 3 3 3 1 2 2 1 3 3 3 3 1 2 2 1 2 3 3 3 1 2 2 1 5 1h6l1 2 2 1 1 4 2 4-2 2-1 1-1 5-1 4-2 2-1 1-2 4-2 4-1 2-1 2-2 4-2 3-2 2-1 1-3 4-2 3-2 1-2 1-3 3-2 3-3 1h-2l-4 2-3 2-2 1-2 1-5 2-4 1-3 1h-2l-4 2-3 2-2 1-2 1-4 2-4 2-2 2-1 1-3 3-2 3-2 2-1 1-2 4-2 3-1 2-1 2-2 4-2 4-1 2-1 2-2 4-1 4-1 2-1 2-2 4-2 4-1 3v2l-1 5-1 4-1 3v2l-2 4-1 4-1 2-1 2-2 5-1 4-1 3v2l-2 4-1 4-1 2-1 2-2 5-1 4-1 3v2l-1 5v5 3 3 5l1 5v3 3l1 5 1 5v3l1 2 1 4 2 4v3l1 2 1 5 1 5v3 3 6 5 3 3 5l1 5 1 2 1 2 2 4 2 4 1 2 2 1 1 5 1 4 1 2 2 1 1 5 2 4 1 2 2 1v6 5 3 3 6 5 3 3 6 6 3 3l-1 4v4l-2 2-1 1v5l1 4v3 3l2 4 2 3h2 2l4-1 5-1 2-1 2-1h5l6-1h3 3l4 2 4 1 1 2 2 1 2 1h3l1 2 2 1-1 5v5l-1 2-1 2-1 5v5l-1 3v2l-2 5-1 4-1 2-1 2-2 4-1 4-1 3v2l-2 5-1 4-1 2-1 2-1 5v5 3 3l-1 5v5 3 3 6 6 3 3 6 5 3 3 6 6 3 3 6 5l-1 2-1 2-1 5v5 3 3l-1 5-1 5-1 3v2l-2 4-1 4-1 2-1 2-2 4-2 4-2 1-2 1-3 3-3 2-2 2-1 1-3 3-2 3-1 2-1 2-2 5-1 4v3 3l1 5 1 4v3l1 2 1 5 2 4v3 3l-4 2-3 2-2 2-1 1-1 5-1 4-1 2-1 2-1 6v5 3 3l-1 5-1 4 1 2 1 2v6 6 3 3 6 5 3 3 6 5 3l1 2 2 4 2 4 1 2 2 1 1 4 2 4 1 2 2 1 1 5 2 4-1 2v1 4 3l-1 3v2l-2 4-2 3-2 2-1 1-6 1h-5l-2-1-2-1-5-1-4-1-1 1-1 1-3 3-3 3-1 2-1 2-2 4-2 3-1 2-1 2v5l1 5-1 2-1 2-2 5-1 4-1 3v2l-3 3-2 3-2 1-2 1-5 1-5 1-1-1-1-2-3-3-2-4-1-2-1-2-3-2-3-3-2-1-1-2-3-3-2-4-1-2-1-2-1-5v-5-3-3l1-5 1-5v-2l1-2 1-5 1-5 1-2 1-2 1-4 1-5v-3-3l-4 1-4 1-1 2-1 2-2 4-2 3-2 2-1 1-4 1-4 1h-1-1v2 1 2 2l-2 4-1 4 8-5 8-6v12 11l16 42 17 41h2 2l33-3 33-4 20 14 20 14" style="fill:#cfcecf;stroke:#cfcecf;stroke-linejoin:round;stroke-width:.7"/><path d="m831 1552l19-49h-1l-2 4-2 3-1 2v2l-3 4-2 4-1 1-1 1-1 2v1l-3 13-2 12" style="fill:#2b2a2c;stroke:#2b2a2c;stroke-linejoin:round;stroke-width:.7"/><path d="m38 1553l76-20 1-1 1-1 2-3 2-4 1-1 2-2 2-2 2-2 19 5 20 5 16-2 16-2-25-3-24-4-18-8-17-9-10 2-10 1-47 15-47 14v2 2 9 8 1h19 19" style="fill:#767476;stroke:#767476;stroke-linejoin:round;stroke-width:.7"/><path d="m133 1525v2l-1 2v2h-2-2l2 4 3 3v-6-7" style="fill:#2b2a2c;stroke:#2b2a2c;stroke-linejoin:round;stroke-width:.7"/><path d="m847 1496l-4-5v-2l1-2v-2l1-2-11-7-10-7-1 1-1 1-1 7-1 6v1 1 4 4 4 3l-2 7-2 7-2 7-2 6-1 3v2l18-18 18-19" style="fill:#767476;stroke:#767476;stroke-linejoin:round;stroke-width:.7"/><path d="m214 1535v-1l-1-2v-2l-2-1-2-1-1-1-1-1-4-1-3-2h-1-1l-16 2-16 2 24 4 24 4" style="fill:#4f4d4f;stroke:#4f4d4f;stroke-linejoin:round;stroke-width:.7"/><path d="m123 1537l2-4 1-1 2-1h2 2v-2l1-2v-1-1l-2-3-2-3-1-1-1-1-2 2-2 2-2 2-1 1-2 4-2 3-1 1-1 1v1 1 1h1l4 1h4" style="fill:#4f4d4f;stroke:#4f4d4f;stroke-linejoin:round;stroke-width:.7"/><path d="m280 1537l-33-83v-11-12l-8 6-8 5 5 29 6 28 19 19 19 19" style="fill:#a3a2a3;stroke:#a3a2a3;stroke-linejoin:round;stroke-width:.7"/><path d="m0 1531l94-29 39-19 40-20h3l3-1h5 6v2l1 1-4 3-3 2-2 1-1 1v1l9 25 10 25 3 2 4 1 7-43 7-44 3-5 4-5-3 1h-3l-3 4-3 3-1 1-1 1-2 5-1 5-1 2v2l-3 4-2 4-2 1h-1l-5-1-5-2h-2l-2-1h-5-5-3-2l-6 1-5 1-2 1h-1l-4 3-4 2-2 1h-2l-5 1-4 1-2 1h-1l-5 2-4 2-2 1-1 1-3 3-3 3-2 1-1 1-4 3-4 2-1 1-1 1-5 2-5 1-2 1h-2l-4 3-4 2h-2-2l-5 2-4 2-2 1-1 1-5 2-4 1-2 1h-2l-5 2-5 1-1 1-1 1-5 2-5 1-2 1h-2l-6 1-5 1-2 1h-1l-5 2-5 1h-2-1v3 3" style="fill:#cfcecf;stroke:#cfcecf;stroke-linejoin:round;stroke-width:.7"/><path d="m908 1530l10-1v-1l1-2 3-3 4-4h1 2l3-3 4-4 1-1 1-1 3-3 4-4h1l1-1 3-3 4-4v-1l1-1 3-3 4-4v-2-2l3-3 4-4h1l1-1 3-4 3-4 1-1 1-1 2-4 3-5v-1l1-1 2-3 2-3v-1l1-1 2-5 2-5h1l2-1 3-4 3-4v-1l1-1 3-4 3-4v-1l1-2 1-6 1-6v-1-2h2 2 1l1-1 2-5 2-5v-1l1-2 2-4 3-5h1l1-1v-6l1-7 1-1 1-1v-7-7-1-2-7-7-1-2-7-7-2-2-6l1-7v-1-2-7-7-2-2-6-6-1-2-7-7-1-2l-1-6v-7-2-2-7-7-1-2-7-7-2-2-6l1-7v-1-2l1-6 1-6v-1-2l1-5 2-6 1-1 1-1 2-4 3-5v-1l1-1 2-4 3-5 1-1 1-1 2-5 2-5h1l1-1 2-4 3-5v-1l1-1 2-4 3-5v-1l1-2 3-4 3-4v-1-2l3-4 3-4v-2-2l3-4 3-4v-1l1-1 2-4 3-5v-1-2l2-5 2-5 1-1 1-1 1-5 2-6v-1l1-1 2-4 3-5v-2-2l2-5 2-5v-1-2l-2 2-2 2-1 1v1l-2 5-2 5-1 2v1l-3 4-3 4-1 1h-1l-4 4-3 3-2 1h-1l-4 3-4 3h-2-1l-5-2-5-2-1-1v-1l-6-1-6-1h-2l-1-1-4-3-4-3h-2-1l-4-1-4-1-1 2v1l-2 6-1 5v2 1l-1 5-1 5-1 1v1h-2l-2-1-1 1h-1l-2 6-2 5-2 4-2 4-1 3v2l-2 2-2 2-3 2-2 2-2 2-2 2-2 3-1 3-6-2-6-2h-5-4l-4 1h-3l-1-3-1-4v-4l1-4-1-3-1-3h-4-3l-3 2-2 2-2 2-2 2-2 3-2 2-2 3-1 3v1 1l1 4 2 3 1 1 2 1 1 2 1 1 3 3 4 3v2l1 1v5 4l-1 2v1l-3 4-2 4-2 1h-2l-6 1h-6-2l-1-1-4 3-4 2-1 2v2l-3 4-2 4v2 2l-1 6v6 2 2l-2 5-1 5-1 2-1 1-4 3-3 3-2 1h-1l-5 2-4 2-2 1h-2l-5 2-5 1-2 1h-1l-4 3-4 2-1 2v1l-2 5-2 4-1 2-1 1-2 5-2 4-1 1-1 1-2 5-1 5-2 1-1 1-2 5-2 4-1 2v1l-2 5-1 5-1 2v1l-2 5-1 5v3 2l-2 5-1 5v2 2l-2 5-1 5-1 2v2l-1 6-1 5-1 2v1l-2 5-1 5v2 2l-2 5-1 5v3 2l-2 5-1 5-1 2v1l-1 6-1 5-1 2-1 1-1 6v6l-1 1-1 1v7 6 2 2 7 6 3 2 5l1 5v2l1 1 3 4 3 3v1 1l3 5 3 5v3 3l2 3 3 2h1l3 5 3 5h1l5 3 6 3h1 2 2l4 3 4 2 1 2 1 1 3 4 3 3 2 6 3 6 4 4 5 4 6 3 6 3 5 3 6 3h1 2" style="fill:#fefefe;stroke:#fefefe;stroke-linejoin:round;stroke-width:.7"/><path d="m1080 1463l-17-46-9-5-9-6v55 55l17-26 18-27" style="fill:#767476;stroke:#767476;stroke-linejoin:round;stroke-width:.7"/><path d="m0 1524v1h1 2l5-1 5-2h1l2-1 5-1 6-1h2l2-1 5-1 5-2 1-1 1-1 5-1 5-2h2l2-1 4-1 5-2 1-1 2-1 4-2 5-2h2 2l4-2 4-3h2l2-1 5-1 5-2 1-1 1-1 4-2 4-3 1-1 2-1 3-3 3-3 1-1 2-1 4-2 5-2h1l2-1 4-1 5-1h2l2-1 4-2 4-3h1l2-1 5-1 6-1h2 3 5 5l2 1h2l5 2 5 1h1l2-1 2-4 3-4v-2l1-2 1-5 2-5 1-1 1-1 3-3 3-4h3l3-1 3-1 3-1h1 1l4-1 4-1 1-1 2-2 2-3 2-4 1-2 1-2 4-1 4-1v3 3l-1 5-1 4-1 2-1 2-1 5-1 5-1 2v2l-1 5-1 5v3 3 5l1 5 1 2 1 2 2 4 3 3 1 2 2 1 3 3 3 2 1 2 1 2 2 4 3 3 1 2 1 1 5-1 5-1 2-1 2-1 2-3 3-3v-2l1-3 1-4 2-5 1-2 1-2-1-5v-5l1-2 1-2 2-3 2-4 1-2 1-2 3-3 3-3 1-1 1-1 4 1 5 1 2 1 2 1h5l6-1 1-1 2-2 2-3 2-4v-2l1-3v-3-4-1l1-2-2-4-1-5-2-1-1-2-2-4-1-4-2-1-1-2-2-4-2-4-1-2v-3-5-6-3-3-5-6-3-3-6-6l-1-2-1-2 1-4 1-5v-3-3-5l1-6 1-2 1-2 1-4 1-5 1-1 2-2 3-2 4-2v-3-3l-2-4-1-5-1-2v-3l-1-4-1-5v-3-3l1-4 2-5 1-2 1-2 2-3 3-3 1-1 2-2 3-2 3-3 2-1 2-1 2-4 2-4 1-2 1-2 1-4 2-4v-2l1-3 1-5 1-5v-3-3-5l1-5 1-2 1-2v-5-6-3-3-6-6-3-3-5-6-3-3-6-6-3-3-5l1-5v-3-3-5l1-5 1-2 1-2 1-4 2-5v-2l1-3 1-4 2-4 1-2 1-2 1-4 2-5v-2l1-3v-5l1-5 1-2 1-2v-5l1-5-2-1-1-2h-3l-2-1-2-1-1-2-4-1-4-2h-3-3l-6 1h-5l-2 1-2 1-5 1-4 1h-2-2l-2-3-2-4v-3-3l-1-4v-5l1-1 2-2v-4l1-4v-3-3-6-6-3-3-5-6-3-3-5-6l-2-1-1-2-2-4-1-5-2-1-1-2-1-4-1-5-2-1-1-2-2-4-2-4-1-2-1-2-1-5v-5-3-3-5-6-3-3l-1-5-1-5-1-2v-3l-2-4-1-4-1-2v-3l-1-5-1-5v-3-3l-1-5v-5-3-3-5l1-5v-2l1-3 1-4 2-5 1-2 1-2 1-4 2-4v-2l1-3 1-4 2-5 1-2 1-2 1-4 2-4v-2l1-3 1-4 1-5v-2l1-3 2-4 2-4 1-2 1-2 1-4 2-4 1-2 1-2 2-4 2-4 1-2 1-2 2-3 2-4 1-1 2-2 2-3 3-3 1-1 2-2 4-2 4-2 2-1 2-1 3-2 4-2h2l3-1 4-1 5-2 2-1 2-1 3-2 4-2h2l3-1 2-3 3-3 2-1 2-1 2-3 3-4 1-1 2-2 2-3 2-4 1-2 1-2 2-4 2-4 1-1 2-2 1-4 1-5 1-1 2-2-2-4-1-4-2-1-1-2h-6l-5-1-2-1-1-2-3-3-2-3-2-1-1-2-3-3-3-3-2-1-1-2-3-3-2-3-2-1-2-1 1-4 2-4 2-1 2-1 3-3 3-3 2-1 2-1 1-4 2-4 1-1 2-2 2-3 3-4v-3-3l1-4 2-4-1-2-1-2 1-4 1-5v-3-3l-2-4-1-5-2-1-1-2-2-3-2-4-1-2v-3l-5-1-4-2-2-1-1-2-4-1-4-2-2 2-1 1-4 2-4 1-2 1-2 1-4 2-4 2-2 2-1 1-3 3-3 2-2 1-2 1-3 3-3 3-2 2-1 1-3 3-3 2-1 2-1 2-3 3-2 3-2 2-1 1-3 4-2 3-1 2-1 2-2 4-2 3-1 2-1 2-2 4-2 4-1 2-1 1-2 4-2 4-1 2-1 2-2 4-1 4-1 2-1 2-1 5-1 5-1 2-1 2-2 4-1 4-1 3v2l-1 5-1 5-1 2v2l-2 5-1 4-1 3v2l-2 4-1 4-1 2-1 2-2 5-1 4-1 2-1 2-2 4-1 4-1 3v2l-2 5-1 4-1 2-1 1-2 5-1 4-1 3v2l-2 4-1 4-1 2-1 2-2 5-1 4-1 3v2l-1 5-1 4-1 3v2l-1 5-1 5-1 2v2l-1 5-1 5-1 3v2l-1 5-1 4v3 3l-1 6v5l-1 2v1 6 5l-1 3v2 6 6l-1 2v2l-1 5-1 5-1 3v2l-2 4-1 4-1 2-1 2-2 5-1 4-1 3v2l-2 4-1 4-1 3v2l-1 5-1 5v3 2l-1 6v5l-1 3v2l1 5 1 4v3 3 5 5 3 3l-2 4-1 4-2 2-1 1-2 4-1 4v3l1 2 1 5 2 4 1 2 1 2 2 4 2 3 1 2 1 2 1 5 1 5v3 3l-3 3-2 3h-3-3l-4-2-3-2-1-2v-3h-4-4l-1 3v2l-4 2-3 2-2-1-2-1-3-3-2-4-2-1-1-2-4-2-3-2-1-2-1-2-3-3-2-3-2-1-1-2-2 5-1 4 1 2 1 2v5l1 5-1 3v2l1 5 2 4v3l1 2 1 4 2 4 1 2 2 1 1 4 2 4 1 2 2 1 2 4 3 3 1 2 2 1 3 3 3 2 1 2 2 1v1l3 1h3l3 2 3 2v1l2 1h2 3 4l2 1 3 1 3 2 3 2 1 2 2 2 2 3 3 3v4 3l1 4 1 4v3l1 3v5l1 5 1 2 1 2 1 5 1 4v3l1 3v5l1 4v3l1 3v5 4h-6-5l-8-1-8-1-7-2-6-2h-7l-7-1-6-3-6-3v-6-7l2-5 3-6-5-3-5-4-7-1-7-2-5-4-4-5-4-4-4-5-4-5-3-6-2-7-1-7-3-5-3-6 1-4 1-4 2-5 2-6-3-6-2-7-2-6-2-7-2-7-1-7-3-6-2-7-3-6-2-6v-8-8l-4-5-3-5-5-4-4-4-4-5-4-5-5-4-4-4-4-5-3-6-4-5-3-5-3-5-3-6-3-6-3-6-3 5-3 4 2 7 2 7 3 5 4 5 3 5 4 5 1 4 1 4h-1l-1-1h-4-3l-2-1-1-1-4-5-3-5h-1l-3-6-2-6h-1v-1l-3-1-2-1v-3-3-6-6-2l1-3 1-4 1-5v-3-3l1-4 1-5v-3-4-4-5-2-2-5-6-3-3-5l1-6v-3-3-4l1-4-1-2v-3l-2-4-1-4-1-3v-3l-2-4-1-4v-3-3l-1-4-1-5-1-2v-3l-2-4-1-5-1-2-1-2-3-2-3-3-2-1-1-2-3-2-3-3-2-1-2-2-2-4-1-4-1-2v-3l3-2 3-3 1-1 2-2v-5-5l-1-2-1-2-2-4-1-4v-3-3l3-2 4-2h3 4l4-1 4-2 2-1 2-1 2-3 3-3 1-1 2-2 2-2 3-3-1-2v-3l-1-3-1-4-2-1-1-2-4-2-3-2-2-2-1-2 1-2 2-2 2 1h3l4 1 5 1 2 1h3l4 2 5 1 2 1 2 1 4-1 5-1 2-1 2-1 3-2 4-2 2-1 2-2 2-3 3-3 1-2 1-2 1-4 1-5-1-2-1-2-3-3-3-3-2-1-1-2-3-3-2-3-2-1-2-1h-5l-5-1h-3-3l-5-1-4-2-2-1-1-2-1-4v-4l1-1 2-2 4-1 5-2 2-1 2-1h5 6 3 3 4l4-1v-2l1-3 4-1 5-2 2 1h3 5 6l2 1h3l1-4 2-5-1-2-1-2-1-5v-5-3-3l-1-4-1-5v-2l1-3 2-4 2-4 1-1 2-2 2-3 2-4 1-2 1-2 1-4 2-5 1-2 1-2 4-1 5-1 1-1 2-2 2-3 2-4h2l3-1 3-3 3-3 1-1 2-2 2-3 3-3 1-2 1-2 2-4 2-4 1-2 1-2 3-2 3-3 1-2 1-2 2-3 2-4 2-1 2-1 2-3 3-4 1-1 2-2 3-2 3-3 1-1 2-2 3-3 3-3h2l3-1 3-2 3-3 2-1 2-1 4-1 4-2 2-1 2-1 3-3 3-3-2-1-1-2-3-3-2-3-1-2v-3l-2-4-1-4v-3-4l-1-4-1-5v-3-3l-2-4-1-4-1-2v-3l-3-3-2-4-2-1-1-2-3-3-2-3v-2-2l4 1 5 1 2 1 3 1 2 3 3 3 1 2 2 1 1 4 2 4 1 2 1 2v6l1 5 1 2 1 2 1 4 2 4 1 2 1 2 4 1h4l1-2 2-2 3-2 3-3 1-1 2-2 1-4 1-5v-2l1-3v-6-6-3-3l1-4 1-5h-1v-1l1-2 2-2-2-1-2-2 1-3 1-4 2 1 2 1h4 5l2-1 2-1 3-2 4-3 2-1 2-1 3-2 3-3 1-1 2-2 2-3 3-3 2-1 2-2 2-3 3-3 1-2 1-2 2-3 3-3 1-1 2-2 4-1 5-2 2-1 2-1h5 6 3 3l4 1 5 1 3 1h3l4 2 4 1 2 1 2 1 4 2 4 1 2 1h3l5 1 5 1h3 3 5l5-1h2l3-1 4 1 5 1 2 2 2 1 3 3 3 2 1 2 1 2 4-1 4-2 1-1 2-2 3-2 4-3 1-2 1-2 2-3 3-3 1-2 1-2 2-3 3-3 1-2 2-2 2-3 3-3 1-1 2-2 2-3 3-3 1-1 2-2 4-2 4-2 2-1 2-1h5l5-1h2l3-1h5l5-1h3 4l5 1h5l2 1h3l4 2 4 1 2 1 2 1 3 3 4 2 1 2 2 1 3 3 3 2 1 2 2 1 3 2 4 2 1 2 2 2 4 1h4l2-1 2-1 2-3 3-3 1-1 2-2 3-3 3-3 1-1 2-2 2-3 2-4 1-1 2-2 3-2 4-2h3l3-1 3-1 4-1v-2l1-3v-5l1-5v-2l1-3v-6-6-2l1-3 1-4 1-5 1-1 2-2 4-1 4-2h3 4 5 6 3 3l4-1 5-1 2-1 2-1 4-1 5-2 2-1 2-1 4-1 5-1h2l3-1 4-1 5-1 3 1h3l4 2 4 1 2 1h3l3 3 3 2 2 1 2 1 1 5 1 5-1 3v2l-3 3-3 2 1 2 2 1-2 4-2 3v3l1 3 1 4 2 4 1 2 2 1 3 3 3 2 1 2 2 1 2 4 3 3 1 2 2 1 1 4 2 4 1 2 1 2v5 4l-2-1-2-2-3-3-2-3-1-2-1-2-3-3-2-3-2-1-1-2-4-2-4-2h-2-2l-4 2-4 1-2 2-1 1-5 1-4 1h-3l-3-1h-3l-3-1-1 3v2l3 3 3 2 1 2 2 1 4 2 4 2 2 1 2 1 4 2 4 1 2 1h3l4 2 4 1 2 2 2 1 4 2 4 1 1 2 2 1 3 3 3 2 1 2 2 1 2 4 3 3 1 2 1 2 2 3 3 3 2 1h3 4 5l2 2 2 1 4 2 4 1 2 1h3l4 2 4 1 1 2 2 1 3 3 3 3 1 2 2 1 1 4 2 4 1 2 2 1 4 2 4 1 2 2 2 1 3 3 3 2 2 1 2 1 3 3 3 2 1 2 1 2 2 4 3 3v3l1 2 2 3 3 3 2 1 2 1 3 2 4 2 2 2 2 1 4 1 5 1 2 1h3l4 2 4 1 2 1 2 1 4 2 5 1 2 1h3l3 3 3 2h2l3-1 4 2 4 1 1 2 2 1 3 3 4 2 1 2 2 1 3 2 4 2 2 1 2 1 5 1 5 1 2 1h3 5l5-1h2l3-1 5 1h5 3 3l4 2 5 1 2 1 2 1 3 2 4 2 2 1h3l4 2 5 1 2 1 2 1 3 3 3 2 2 1 2 1 2 3 3 3 1 2 1 2 2 4 3 3 1 2 2 1 2 4 2 3 1 2 1 2 1 5 2 4 1 2 2 1 1 4 2 4 1 2 1 2 2 4 2 3 1 2 1 2 1 5 1 5 1 2 1 2 2 4 2 3 1 2 2 1 1 5 2 4 1 2 2 1 2 3 3 3 1 2 1 2 2 3 3 3 1 2 2 1 3 3 4 2 1 2 2 1 2 3 3 3 2 1 2 1 4 2 4 2v-3-3-4-4-4-5-4-5-4-4-4-5-4-5-4-5-4-4-4-5-4-5-4-4-4-5-4-5-4-4-4-5-4-5-4-5-4-4-4-5-4-5-4-4-4-5-4-5-4-4-4-5-4-5-4-5-4-4-4-5-4-5-4-4-4-5-4-5-4-4-4-5-4-5-4-5-4-4-4-5-4-5-4-4-4-5-4-5-4-4-4-5-4-5-4-5-4-4-4-5-4-5-4-4-4-5-4-5-4-4-4-5-4-5-3-3h-6-5-9-9-9-8-9-8-9-9-6-5v3 3l-1 1v1l-2 6-2 5v2 1l-3 5-2 4v2 1l-3 5-2 4-1 1v1l-2 6-2 5-1 1h-1l-2 6-1 5h-2-1l-2 6-1 6v2 1l-4 4-3 3h-2-1l-5 2-4 1-6-3-5-4-5-4-4-4-3-6-2-7-5-4-4-4-4-5-3-5-5-4-5-4-5-4-4-4-3-4-3-4-5 1-4 1h-6l-6-1-1-8-1-8v-4-4h-5-4-9-9-9-8-9-8-9-9-9-8-9-9-9-8-9-8-9-9-9-8-9-9-9-8-9-8-9-9-9-8-9-9-9-8-9-8-9-9-9-8-9-9-9-8-9-8-9-9-9-8-9-9-9-8-9-8-9-9-9-8-9-9-9-8-9-8-9-9-9-8-9-9-9-8-9-8-9-9-9-8-9-9-9-8-9-8-9-9-9-8-9-9-9-8-9-8-9-9-9-8-9-8-9-9-5-4v3 2h-2-1l-4 4-3 4-1 1h-1l-4 4-3 3v2 1l-6-1-6-2-3-1-3-2-1 1h-1l-4 1-4 1-1 1h-1l-4-1-4-2-1 1v1l-3 4-3 4-1 1h-1l-4 5-4 4v6 5 2 1l-4 2-3 2v2 2 9 9 9 8 9 8 9 9 9 8 9 9 9 8 9 8 9 9 9 8 9 9 9 8 9 8 1h8 9 1 2l4-3 4-3v-1-2l1-6 2-6h1l1-1 1-5 2-6v-1l1-1 4-3 4-3h1 2l6 1 7 1h1 2l5 2 6 1 1 1h1l6 2 6 1v1l1 1 4 3 5 2 1 1h1l5 2 5 2h1 2l4 4 4 3v1l1 1 3 4 4 3 1 1h1l3 5 3 4v2 1l-3 5-2 4h-2-1l-3 4-3 4-1 1h-1l-4 4-4 3-1 1v1l-3 4-3 4-1 1v1l-3 5-2 5-1 1v1l-5 2-5 2-1 1v1l-6 1-6 1-2-5-1-5h-3-2l-4 3-3 2-2-1-1-1h-5-4l-2 1-1 1-3-1-2-2-2-1-1-1h-6l-5-1h-2l-2-1-4-3-3-3h-2-1l-5-1-5-1v-2-3l-2-2-2-2v5 5 9 8 9 8 9 9 9 8 9 9 9 8 9 8 9 9 9 8 9 9 9 8 9 8 9 9 9 8 9 9 9 8 9 8 9 9 9 8 9 9 9 8 9 8 9 9 9 8 9 9 9 8 9 8 9 9 9 8 9 9 9 8 9 8 9 9 9 8 9 9 9 8 9 8 9 9 9 8 9 9 9 8 9 8 9 9 9 8 9 9 9 8 9 8 9 9 9 8 9 9 9 8 9 8 9 9 9 8 9 9 9 8 9 8 9 9 9 8 9 9 9 8 9 8 9 9 9 8 9 9 9 8 9 8 9 9 3 3" style="fill:#fefefe;stroke:#fefefe;stroke-linejoin:round;stroke-width:.7"/><path d="m198 1523h2l-10-25-9-25-13 5-12 4 8-9 9-10-40 20-39 19 10-1 10-2 17 9 18 8 24 4 25 3" style="fill:#a3a2a3;stroke:#a3a2a3;stroke-linejoin:round;stroke-width:.7"/><path d="m1154 1519l1-49-1 25v24" style="fill:#020203;stroke:#020203;stroke-linejoin:round;stroke-width:.7"/><path d="m1045 1516v-110l-2 4-2 4 1 49 1 48 1 3 1 2" style="fill:#020203;stroke:#020203;stroke-linejoin:round;stroke-width:.7"/><path d="m181 1473v-1l1-1 2-1 3-2 4-3-1-1v-2h-6-5l-3 1h-3l-9 10-8 9 12-4 13-5" style="fill:#020203;stroke:#020203;stroke-linejoin:round;stroke-width:.7"/><path d="m845 1483h2l-6-3-5-3h-1l-3-5-3-5h-1l-3-2-2-3v4l1 3 10 7 11 7" style="fill:#a3a2a3;stroke:#a3a2a3;stroke-linejoin:round;stroke-width:.7"/><path d="m1221 1469l11-4-3-6-2-6-2-7-2-7v-7-8l-1-8v-8l-2 7-1 6v7 6 9 9l1 8 1 7v1 1" style="fill:#a3a2a3;stroke:#a3a2a3;stroke-linejoin:round;stroke-width:.7"/><path d="m817 1446v-2l-3-3-3-4-1-1v-2l-1-5v-5-2-3-6-7-2-2-6-7l1-1 1-1v-6l1-6 1-1 1-2 1-5 1-6v-1l1-2 1-5 2-5v-2-3l1-5 2-5v-2-2l1-5 2-5v-1l1-2 1-5 1-6v-2l1-2 1-5 2-5v-2-2l1-5 2-5v-2-3l1-5 2-5v-1l1-2 1-5 2-5v-1l1-2 2-4 2-5 1-1 2-1 1-5 2-5 1-1 1-1 2-4 2-5 1-1 1-2 2-4 2-5v-1l1-2 4-2 4-3h1l2-1 5-1 5-2h2l2-1 4-2 5-2h1l2-1 3-3 4-3 1-1 1-2 1-5 2-5v-2-2-6l1-6v-2-2l2-4 3-4v-2l1-2 4-2 4-3 1 1h2 6l6-1h2l2-1 2-4 3-4v-1l1-2v-4-5l-1-1v-2l-4-3-3-3-1-1-1-2-2-1-1-1-16 23-15 22v2 2 4 3l-10 16-10 15v-1l1-2v-1-1l-3 4-3 3-1-32v-32l-14-5-13-5-4 15-3 14-5 17-5 17-4 19-3 19-6 27-6 27-2 21-1 21-7 27-7 27-5 24-4 23 6 17 7 17 3 3 4 3" style="fill:#cfcecf;stroke:#cfcecf;stroke-linejoin:round;stroke-width:.7"/><path d="m607 1440l13-2 7-1 8-1h-6l-5-1h-7l-7-1-5 3-5 2 3 1h4" style="fill:#a3a2a3;stroke:#a3a2a3;stroke-linejoin:round;stroke-width:.7"/><path d="m608 1423l14-1-2-4-2-5-5 4-5 4v1 1" style="fill:#a3a2a3;stroke:#a3a2a3;stroke-linejoin:round;stroke-width:.7"/><path d="m1234 1415l1 1v-6-6-1-2-7-7-1-2-7-8-1-2-7-7-1-2-8-9-7-8-1-2-7-7-1-2-7-8-1-2-7-7-1-2-8-9-7-8-1-2-7-7-1-2-7-8-1-2-7-7-1-2-8-9-7-8-1-2-7-7-1-2-7-8-1-2-7-7-1-2-8-9-7-8-1-2-7-7-1-2-7-8-1-2-7-7-1-2-8-9-7-8-1-2-7-7-1-2-1-1l-3-1-2-1h-3l-3-1-2-2-1-3-1-4v-4l-2-2-2-3-3 1-3 1h-4-3l-2 3-1 3v4 3 4l1 3v5 4 5 4 4 4 4l1 4v5 4 4 4 4l1 4v4l1 4v5 4 4 4 4l1 4v5 4 4 4 5 4l1 4 1 3v4 4 4l1 4v5 4 5 4l1 3 1 3v5 4 5 4 4l1 3v5 4l1 4 1 3v4 4 4l1 4v5 4 5 4 4 4l1 4 1 3v5 4 4l1 3v5 4l1 4 1 3v4 4 4l1 4v5 4 4l1 4v4l1 3v5 4 4l1 4v4 4 5 4l1 4 1 3v4 4 4l1 4v5 4l1 4 1 3v4 4 4l1 4v5 4l1 3 1 3v5 4 4l1 4v4 4 5 4l1 1 1 1" style="fill:#fefefe;stroke:#fefefe;stroke-linejoin:round;stroke-width:.7"/><path d="m633 1389v-8l15-2 16-3 17-6 17-6 21-13 22-13 3-24 4-25-2-28-2-28-13-6-13-7 2 17 3 16-14 8-14 7-16 2-16 2 1 11 1 11-14 4-13 4-15 12-14 11-16 14-16 13-23-3-22-4-4 22-4 22h1 2l3 1h3v1l50-1 50-1" style="fill:#4f4d4f;stroke:#4f4d4f;stroke-linejoin:round;stroke-width:.7"/><path d="m530 1389l3 1h-3l-3-1h1 2" style="fill:#767476;stroke:#767476;stroke-linejoin:round;stroke-width:.7"/><path d="m633 1389v-1l6-1 6-2h1 1l5-2 6-2h1l1-1 2-2 2-2-16 3-15 2v4 4" style="fill:#020203;stroke:#020203;stroke-linejoin:round;stroke-width:.7"/><path d="m713 1337l8-7 2-6 3-6-2-1-1-2-5-1-5-2-6 2-6 1 6 2 7 1-3 5-3 4-5 3-5 3 6 2 7 2h1 1" style="fill:#2b2a2c;stroke:#2b2a2c;stroke-linejoin:round;stroke-width:.7"/><path d="m485 1311l9-6v-4-5l1-6 2-7-5 2-4 2-6 1-5 1-3 4-2 3v4 3l6 3 6 3v1l1 1" style="fill:#767476;stroke:#767476;stroke-linejoin:round;stroke-width:.7"/><path d="m586 1308l16 1 2-5 2-6-2-6-1-7-2-6-1-6-5 4-5 3 1 7 2 6-5-2-5-3-5 1h-4l4 4 5 4v4 3l1 2 2 2" style="fill:#4f4d4f;stroke:#4f4d4f;stroke-linejoin:round;stroke-width:.7"/><path d="m1168 1289l2-13v-8-9-9-9-8-9l-1 8-1 7v9 9 9 8 8 7" style="fill:#4f4d4f;stroke:#4f4d4f;stroke-linejoin:round;stroke-width:.7"/><path d="m610 1220l-1-51-12-1-11-1-6 17-6 17 1 21 2 21 16-11 17-12" style="fill:#4f4d4f;stroke:#4f4d4f;stroke-linejoin:round;stroke-width:.7"/><path d="m418 1233l9-6-6-1-6-2-3 2-3 2 4 3 5 2" style="fill:#cfcecf;stroke:#cfcecf;stroke-linejoin:round;stroke-width:.7"/><path d="m583 1220l14 1 1-6 2-6-1-8-1-8-7 1h-7l-3 6-3 5-5 5-4 4 5 3 6 3h1 2" style="fill:#2b2a2c;stroke:#2b2a2c;stroke-linejoin:round;stroke-width:.7"/><path d="m912 1149l-2 12-1 1-1 1-2 5-2 4-2 1h-1l-4 4-3 3h-1-1l10-15 10-16" style="fill:#a3a2a3;stroke:#a3a2a3;stroke-linejoin:round;stroke-width:.7"/><path d="m887 1182l6-7 9-18 10-19 15-22 16-23-2-3-1-4-3-2-2-2-19 20-19 19-5 31-5 30" style="fill:#020203;stroke:#020203;stroke-linejoin:round;stroke-width:.7"/><path d="m892 1180h2l3-3 4-4h1l2-1 2-4 2-5 1-1 1-1 1-6 1-6v-3-4-2-2l-10 19-9 18v1 1l-1 2v1" style="fill:#767476;stroke:#767476;stroke-linejoin:round;stroke-width:.7"/><path d="m734 1131l-16-36 5-16 6-16-12-14-12-14-12-11-11-11 4-18 5-19v-17-17l-15 6-14 6-2-2-2-2-1 2v1l-2 2-1 1v3l1 2-1 11v10l-26-22-25-23-13 23-13 23v27l1 26 12-11 13-11 5-10 6-11 5 17 6 17 14 15 15 14v14 14l-25-7-24-7-25 3-25 3-24 8-24 7-1 2v2l30-5 30-6 24 3 24 3 43 15 43 14h-18-17l-21-7-21-8 3-2 3-2-45-2-44-3 28 8 28 7 23 6 24 5 25 9 25 8 20-3 21-4" style="fill:#767476;stroke:#767476;stroke-linejoin:round;stroke-width:.7"/><path d="m700 1119l-86-29-24-3-24-3-30 6-30 5-19 12-19 11 26-9 26-9 10-2 10-3 44 3 45 2 18 10 18 9h17 18" style="fill:#020203;stroke:#020203;stroke-linejoin:round;stroke-width:.7"/><path d="m265 1121v-9l-1-3v-3l-1-4v-5l-1-3v-3l-1-4-1-5-1-2-1-2-1-5v-5l-1-3v-3l-1-4-1-4v-3-4l-3-3-2-3-2-2-1-2-3-2-3-2-3-1-2-1h-4-3-2l-2-1 1 2 1 2 2 1h3v2l1 1-11 19-11 19-20-13-20-14-6-25-5-26-5-25-4-26-6-25-5-25-2-19-1-20-3-2-2-3-20-2-19-2 1 8 1 8-6-12-5-12-3-1-2-1 1-2 2-3v-4l1-5-2-2-1-3-1-1-1-1-1-2v-3-2-3-1-2l-4-28-3-28 1-24 2-25 3-13 4-13-15-16-14-17h27 27 5 5l5-27 6-28 8-21 9-22 7-25 8-25 14-12 15-13 20-14 21-15 20-14 21-14 12-18 12-18 13-20 14-20 15-14 15-14 14-15 15-16 17-17 18-17 19-16 19-16 5 11 6 11-16 20-15 19-1 22v22l19-15 19-15 12-22 13-23v-2l1-2v-5-5l3-2 3-2 2-1 2-2 4 1h4v-2-3l7-9 8-9 15-19 16-20 27 4 27 4 13 13 13 12 35 8 35 7h1 2 4 4 2 3l5 2 5 1 31 1 31 1v-15-15l22 37 22 36h1l21-1 22-2h2 2l4-1 4-2 1 3 1 3-3 3-2 2 21 15 22 15 18 17 19 16 21 13 22 13 28 13 28 12h2 2l1 2 2 2 17 15 17 14 6 45 6 45v1h1l8 23 9 23-1 8v8l6 11 7 10 16 19 16 18 6 19 7 19v2l1 2 1 1h1l1 4 2 3 2 2 2 1h2 2l-2-2-1-2-1-1v-2l-3-3-3-4v-2-2l2-4 3-5v-2-2l-1-5-1-6-1-1v-2l-2-4-2-5-1-1-1-1-3-4-2-5-1-1-1-1-2-4-2-5-1-1-1-1-4-3-3-4-1-1-1-1 1-1 1-2 1 1h2l5 2 5 1h2 2 6 6l1 1h2l5 1 6 1 1 1h2l4 1h5v-45-45l-4-2-4-2-2-1-2-1-3-3-2-3-2-1-1-2-4-2-3-3-2-1-1-2-3-3-2-3-1-2-1-2-3-3-2-3-2-1-1-2-2-4-1-5-2-1-1-2-2-3-2-4-1-2-1-2-1-5-1-5-1-2-1-2-2-3-2-4-1-2-1-2-2-4-1-4-2-1-1-2-2-4-1-5-1-2-1-2-2-3-2-4-2-1-1-2-3-3-2-4-1-2-1-2-3-3-2-3-2-1-2-1-3-2-3-3-2-1-2-1-5-1-4-2h-3l-2-1-4-2-3-2-2-1-2-1-5-1-4-2h-3-3-5l-5-1-3 1h-2l-5 1h-5-3l-2-1-5-1-5-1-2-1-2-1-4-2-3-2-2-1-1-2-4-2-3-3-2-1-1-2-4-1-4-2-3 1h-2l-3-2-3-3h-3l-2-1-5-1-4-2-2-1-2-1-4-1-4-2h-3l-2-1-5-1-4-1-2-1-2-2-4-2-3-2-2-1-2-1-3-3-2-3-1-2v-3l-3-3-2-4-1-2-1-2-3-2-3-3-2-1-2-1-3-2-3-3-2-1-2-2-4-1-4-2-2-1-1-2-2-4-1-4-2-1-1-2-3-3-3-3-2-1-1-2-4-1-4-2h-3l-2-1-4-1-4-2-2-1-2-2h-5-4-3l-2-1-3-3-2-3-1-2-1-2-3-3-2-4-2-1-1-2-3-2-3-3-2-1-1-2-4-1-4-2-2-1-2-2-4-1-4-2h-3l-2-1-4-1-4-2-2-1-2-1-4-2-4-2-2-1-1-2-3-2-3-3v-2l1-3 3 1h3l3 1h3l4-1 5-1 1-1 2-2 4-1 4-2h2 2l4 2 4 2 1 2 2 1 2 3 3 3 1 2 1 2 2 3 3 3 2 2 2 1v-4-5l-1-2-1-2-2-4-1-4-2-1-1-2-3-3-2-4-2-1-1-2-3-2-3-3-2-1-1-2-2-4-1-4-1-3v-3l2-3 2-4-2-1-1-2 3-2 3-3v-2l1-3-1-5-1-5-2-1-2-1-3-2-3-3h-3l-2-1-4-1-4-2h-3l-3-1-5 1-4 1-3 1h-2l-5 1-4 1-2 1-2 1-5 2-4 1-2 1-2 1-5 1-4 1h-3-3-6-5-4-3l-4 2-4 1-2 2-1 1-1 5-1 4-1 3v2 6 6l-1 3v2l-1 5v5l-1 3v2l-4 1-3 1-3 1h-3l-4 2-3 2-2 2-1 1-2 4-2 3-2 2-1 1-3 3-3 3-2 2-1 1-3 3-2 3-2 1-2 1h-4l-4-1-2-2-1-2-4-2-3-2-2-1-1-2-3-2-3-3-2-1-1-2-4-2-3-3-2-1-2-1-4-1-4-2h-3l-2-1h-5l-5-1h-4-3l-5 1h-5l-3 1h-2l-5 1h-5l-2 1-2 1-4 2-4 2-2 2-1 1-3 3-2 3-2 2-1 1-3 3-2 3-2 2-1 2-3 3-2 3-1 2-1 2-3 3-2 3-1 2-1 2-4 3-3 2-2 2-1 1-4 2-4 1-1-2-1-2-3-2-3-3-2-1-2-2-5-1-4-1-3 1h-2l-5 1h-5-3-3l-5-1-5-1h-3l-2-1-4-1-4-2-2-1-2-1-4-1-4-2h-3l-3-1-5-1-4-1h-3-3-6-5l-2 1-2 1-5 2-4 1-2 2-1 1-3 3-2 3-1 2-1 2-3 3-2 3-2 2-2 1-3 3-2 3-2 2-1 1-3 3-3 2-2 1-2 1-4 3-3 2-2 1-2 1h-5-4l-2-1-2-1-1 4-1 3 2 2 2 1-2 2-1 2v1h1l-1 5-1 4v3 3 6 6l-1 3v2l-1 5-1 4-2 2-1 1-3 3-3 2-2 2-1 2h-4l-4-1-1-2-1-2-2-4-1-4-1-2-1-2-1-5v-6l-1-2-1-2-2-4-1-4-2-1-1-2-3-3-2-3-3-1-2-1-5-1-4-1v2 2l2 3 3 3 1 2 2 1 2 4 3 3v3l1 2 1 4 2 4v3 3l1 5 1 4v4 3l1 4 2 4v3l1 2 2 3 3 3 1 2 2 1-3 3-3 3-2 1-2 1-4 2-4 1-2 1-2 1-3 3-3 2-3 1h-2l-3 3-3 3-2 2-1 1-3 3-3 2-2 2-1 1-3 4-2 3-2 1-2 1-2 4-2 3-1 2-1 2-3 3-3 2-1 2-1 2-2 4-2 4-1 2-1 2-3 3-2 3-2 2-1 1-3 3-3 3-3 1h-2l-2 4-2 3-2 2-1 1-5 1-4 1-1 2-1 2-2 5-1 4-1 2-1 2-2 4-2 3-2 2-1 1-2 4-2 4-1 3v2l1 5 1 4v3 3 5l1 5 1 2 1 2-2 5-1 4h-3l-2-1h-6-5-3l-2-1-5 2-4 1-1 3v2l-4 1h-4-3-3-6-5l-2 1-2 1-5 2-4 1-2 2-1 1v4l1 4 1 2 2 1 4 2 5 1h3 3l5 1h5l2 1 2 1 2 3 3 3 1 2 2 1 3 3 3 3 1 2 1 2-1 5-1 4-1 2-1 2-3 3-2 3-2 2-2 1-4 2-3 2-2 1-2 1-5 1-4 1-2-1-2-1-5-1-4-2h-3l-2-1-5-1-4-1h-3l-2-1-2 2-1 2 1 2 2 2 3 2 4 2 1 2 2 1 1 4 1 3v3l1 2-3 3-2 2-2 2-1 1-3 3-2 3-2 1-2 1-4 2-4 1h-4-3l-4 2-3 2v3 3l1 4 2 4 1 2 1 2v5 5l-2 2-1 1-3 3-3 2v3l1 2 1 4 2 4 2 2 2 1 3 3 3 2 1 2 2 1 3 3 3 2 1 2 1 2 1 5 2 4v3l1 2 1 5 1 4v3 3l1 4 2 4v3l1 3 1 4 2 4v3l1 2-1 4v4 3 3l-1 6v5 3 3 6 5 2 2 5 4 4 3l-1 5-1 4v3 3l-1 5-1 4-1 3v2 6 6 3 3l2 1 3 1 12 13 12 12 1 1h1l-1-4-1-4-4-5-3-5-4-5-3-5-2-7-2-7 3-4 3-5 3 6 3 6 3 6 3 5 3 5 4 5 3 6 4 5 4 4 5 4 4 5 4 5 4 4 5 4 3 5 4 5v8 8l2 6 3 6 2 7 3 6 1 7 2 7 2 7 2 6 2 7 3 6-2 6-2 5-1 4-1 4 3 6 3 5 1 7 2 7 3 6 4 5 4 5 4 4 4 5 5 4 7 2 7 1 5 4 5 3-3 6-2 5v7 6l6 3 6 3 7 1h7l6 2 7 2 8 1 8 1h5 6" style="fill:#cfcecf;stroke:#cfcecf;stroke-linejoin:round;stroke-width:.7"/><path d="m665 1119l-36-19-3 2-3 2 21 8 21 7" style="fill:#4f4d4f;stroke:#4f4d4f;stroke-linejoin:round;stroke-width:.7"/><path d="m700 1119l-86-29 43 15 43 14" style="fill:#4f4d4f;stroke:#4f4d4f;stroke-linejoin:round;stroke-width:.7"/><path d="m994 1089l3-6 2-2 2-2 2-2 3-2 2-2 2-2v-2l1-3 1-21 1-21-2-2-2-3h-13-12l-18 21-18 20-7 11-6 11 2 2 3 2v-1-1l1-3 2-3 2-2 2-3 2-2 2-2 2-2 3-2h3 4l1 3 1 3-1 4v4l1 4 1 3h3l4-1h4 5l6 2 6 2" style="fill:#cfcecf;stroke:#cfcecf;stroke-linejoin:round;stroke-width:.7"/><path d="m1011 1066l4-8 2-5 2-6h1l1-1 1-6 2-6v-1-1l-2-2-1-2v-3-4-1-1l-3 2-3 1-1 1-1 1-1 21-1 21" style="fill:#020203;stroke:#020203;stroke-linejoin:round;stroke-width:.7"/><path d="m867 1070l10 1 6-2 6-3 2-3 2-3-7 2-6 2-7 1h-7l-4 2-3 1 4 1 4 1" style="fill:#cfcecf;stroke:#cfcecf;stroke-linejoin:round;stroke-width:.7"/><path d="m232 1038l-1-3h-3l-2-1v4 3l-1 3v2l-11-2-10-2 2-5 2-5-2-1-2-2 14 5 14 4" style="fill:#767476;stroke:#767476;stroke-linejoin:round;stroke-width:.7"/><path d="m225 1046l-1 1-2-1-1-1-1-2v-2l-4-3-3-3-1-1-1-1h-2l-1-1-2 5-2 5 10 2 11 2" style="fill:#4f4d4f;stroke:#4f4d4f;stroke-linejoin:round;stroke-width:.7"/><path d="m224 1047l1-1v-2l1-3v-3-4l-1-2-1-2v-1l-3-2-3-2h-3l-3-1-15-15-14-16 10 18 11 18 2 2 2 1 1 1h2l1 1 1 1 3 3 4 3v2l1 2 1 1 2 1" style="fill:#020203;stroke:#020203;stroke-linejoin:round;stroke-width:.7"/><path d="m915 996l-15 13 7-6 8-7" style="fill:#cfcecf;stroke:#cfcecf;stroke-linejoin:round;stroke-width:.7"/><path d="m1021 1028l31-31-3 1h-2-2-2l2-2 2-2-24 12-23 11h2l3-1 2 2 2 1 2 3 2 2 1-1 1-1 3-1 3-2v1 1 4 3" style="fill:#4f4d4f;stroke:#4f4d4f;stroke-linejoin:round;stroke-width:.7"/><path d="m984 1015l3-3v-2-3l-30 5-29 5-2-3-1-3v-1-1l1-1 1-2 28 5 29 4" style="fill:#767476;stroke:#767476;stroke-linejoin:round;stroke-width:.7"/><path d="m987 1007l3-9-1-2-1-2-22 7-21 7-5 3-4 2-2 1h-2l-2 2-2 1 29-5 30-5" style="fill:#4f4d4f;stroke:#4f4d4f;stroke-linejoin:round;stroke-width:.7"/><path d="m1000 1017l47-23 3-3 3-3 1 1 2 1 5 1h6l1-1 2-2 1-3 1-3v-1-1l3-3 3-3 1-10 2-10-14-14-14-15-1 18-1 18-15 15-14 15-11 13-11 13" style="fill:#2b2a2c;stroke:#2b2a2c;stroke-linejoin:round;stroke-width:.7"/><path d="m988 994l-17-54-1-2-1-2v23l1 22-13 14-12 13 21-7 22-7" style="fill:#2b2a2c;stroke:#2b2a2c;stroke-linejoin:round;stroke-width:.7"/><path d="m1107 965l-3-50-1-2v-2l1-1v-3l1-3h-1-1-2-1l-1 3-1 2-1 2-1 2h-5-5l-4 31-4 30-3 3-3 3v1 1l-1 3-1 3 9 4 9 3-7 2-6 1 16-16 16-17" style="fill:#a3a2a3;stroke:#a3a2a3;stroke-linejoin:round;stroke-width:.7"/><path d="m927 1004l21-67-11 34-10 33" style="fill:#767476;stroke:#767476;stroke-linejoin:round;stroke-width:.7"/><path d="m1043 998h4 2l3-1h2 3l6 1h6 3 3l6-1 7-2-9-3-9-4-2 2-1 1h-6l-5-1-2-1-1-1-3 3-3 3-2 2-2 2" style="fill:#020203;stroke:#020203;stroke-linejoin:round;stroke-width:.7"/><path d="m175 973l-2-8-1-1v-2-6-7-2-2l-1-7v-7l-2-2-2-2v22l1 22 3 1 4 1" style="fill:#767476;stroke:#767476;stroke-linejoin:round;stroke-width:.7"/><path d="m655 961l-2 1v-1-1l-5 2-4 2h-1v-1l-4-1-4-2-1-1-1-2-1-1v-2l-3-1-3-2-1-1-1-1-5-2-4-3-1-1-1-1-4-2-4-3v-2-2l-1 2-1 2 25 23 26 22v-10l1-11" style="fill:#4f4d4f;stroke:#4f4d4f;stroke-linejoin:round;stroke-width:.7"/><path d="m643 963l1 1 4-2 5-2v1 1h1l1-1-1-2v-3l1-1 2-2v-1l1-2-2-5-1-6-3-2-2-3v4 3l-1 4-1 4-1 3v3l-2 2-2 2-3-1-2-2-3-1-3-1v2l1 1 1 2 1 1 4 2 4 1" style="fill:#2b2a2c;stroke:#2b2a2c;stroke-linejoin:round;stroke-width:.7"/><path d="m558 933l-7-13-11 3-11 3 5-3 5-3 9 7 10 6" style="fill:#a3a2a3;stroke:#a3a2a3;stroke-linejoin:round;stroke-width:.7"/><path d="m643 959l4-4v-3l1-3 1-4 1-4v-3-4l-5-4-5-4-7-1-7-2-8 1-7 1-3 4-3 4v2 2l4 3 4 2 1 1 1 1 4 3 5 2 1 1 1 1 3 2 3 1 3 1 3 1 2 2 3 1" style="fill:#020203;stroke:#020203;stroke-linejoin:round;stroke-width:.7"/><path d="m971 940l-2-4 1 2 1 2" style="fill:#4f4d4f;stroke:#4f4d4f;stroke-linejoin:round;stroke-width:.7"/><path d="m210 950l13-2v-7l1-7-6-3-5-4-5 1h-5l-3 4-2 4 2 7 3 6 3 1h4" style="fill:#a3a2a3;stroke:#a3a2a3;stroke-linejoin:round;stroke-width:.7"/><path d="m551 920h-11-1l-5 3-5 3 11-3 11-3" style="fill:#020203;stroke:#020203;stroke-linejoin:round;stroke-width:.7"/><path d="m948 935l5-10v-1-1-6l1-6v-1-1l-1-6v-7l-7-21-7-21-5-23-5-23-7-20-6-20-8-24-8-25-4-2-4-3-21 9-21 9 10 18 10 18-17 7-17 6-2-1-1-2h-1l-1-1-4-5-4-5-3-4-2-5-1-1-1-1-2-1-2-1-2 3-2 3-3 6-2 5-15 11-15 10h-3-3-1-1l-3-1-2-2-3-2-2-3-2-1-1-2-10 6-9 6 12 9 13 9-33 5-33 5-2-2-1-3-2-3-1-3-1-3-1-3-1-2v-3l-1-1v-2l-4-3-3-3-1-1-1-1h-1v-1l16 33 17 33 6 8 7 7 15 9 15 9 8-2 8-3 8 1h9l18 14 19 14 10-6 11-7 21-8 22-9 6-19 7-19 11-1 11-1 8 25 9 25 7 23 7 22" style="fill:#767476;stroke:#767476;stroke-linejoin:round;stroke-width:.7"/><path d="m498 931l8-7 5-3 5-4 5-3 6-4 6-2 7-2 3-5 3-6 1-7 2-8 1-7 2-7 1-7 2-8 2-6 3-6 2-6 3-6 3-5 4-6 3-5 3-6 2-7 2-7-2-6-2-7h-5l-5-1-4 5-4 5-3 6-3 5-3 6-3 6-3 6-3 5-3 6-3 5-4 6-3 5-3 6-3 5-2 7-2 7-2 7-1 7-3 6-3 5-4 5-4 5-3 6-2 6v8l1 8" style="fill:#fefefe;stroke:#fefefe;stroke-linejoin:round;stroke-width:.7"/><path d="m1233 921l-4-8-5-4-4-4-1-6v-7l4-4 4-5 3-5 4-5h1v-36-37l-5 2-5 2-1 1-7 2-6 1v-1-5l1-6-1-8-1-8 5-1 6-1 7 2 7 1v-9-9h-3l-3-1h-1l-4-1-4-2-2-1-2-2-3-3-2-3-1-2-1-2-1-4-1-5v-3-3l1-4 2-4 1-2 1-3-1-5v-5l1-2 1-2 3-2 3-3 1-2 2-2 1-4 2-4v-2l1-3-3-2-2-3-18 19-17 18 3 2 3 1 1 2 1 1-1 3-1 2v3 3l-1 3-1 2h-11l-10-1-15 4-14 3-6 8-5 8h-2-1l-4 2-3 1v2 1 6 5l2 2 3 2 2 3 2 3v3l1 3 3 3 3 2v2l1 2 13 18 14 17-2 25-2 24 37 19 37 18" style="fill:#cfcecf;stroke:#cfcecf;stroke-linejoin:round;stroke-width:.7"/><path d="m1234 921l1-1v-6-7-2-3-6-6-2-3-6-6h-1l-4 5-3 5-4 5-4 4v7l1 6 4 4 5 4 2 4 2 4h1" style="fill:#fefefe;stroke:#fefefe;stroke-linejoin:round;stroke-width:.7"/><path d="m162 912l10-5v-7l1-7-3-6-2-7-5 4-4 4-4 5-4 4 2 7 3 6 3 1 3 1" style="fill:#767476;stroke:#767476;stroke-linejoin:round;stroke-width:.7"/><path d="m1086 913h10l1-2 1-2 1-2 1-3h-3l-2-1-2 1h-1l-5 2-5 2v2l1 1 1 1 2 1" style="fill:#2b2a2c;stroke:#2b2a2c;stroke-linejoin:round;stroke-width:.7"/><path d="m1207 906l-77-14 38 7 39 7" style="fill:#a3a2a3;stroke:#a3a2a3;stroke-linejoin:round;stroke-width:.7"/><path d="m953 896v-3l-1-4v-4l-1-3-1-4v-2-3l-5-29-5-29 3-6 3-6-1-6-1-7-1-1v-1l-1-2-1-2-6-19-5-19-9-5-8-6-5-5-4-5-2-3-2-3 8 25 8 24 6 20 7 20 5 23 5 23 7 21 7 21" style="fill:#4f4d4f;stroke:#4f4d4f;stroke-linejoin:round;stroke-width:.7"/><path d="m77 890h7l-12-12-12-13v1h1l2 6 3 6h1l3 5 4 5 1 1 2 1" style="fill:#020203;stroke:#020203;stroke-linejoin:round;stroke-width:.7"/><path d="m1120 835l-9 13 1 14 1 13 3-20 4-20" style="fill:#2b2a2c;stroke:#2b2a2c;stroke-linejoin:round;stroke-width:.7"/><path d="m1159 884l4-49-14-17-13-18 11 42 12 42" style="fill:#a3a2a3;stroke:#a3a2a3;stroke-linejoin:round;stroke-width:.7"/><path d="m1180 882l7-8 3-5 4-5 3-5 4-6 3-5 4-5 3-5 4-5-7 2-6 1-7 2-6 2-8 1-8 1-5 4-5 3 2 7 2 6-1 6v5l4 4 5 4 2 1h3" style="fill:#fefefe;stroke:#fefefe;stroke-linejoin:round;stroke-width:.7"/><path d="m121 878l8-7-1-6-1-7-7-1-7-1h-6-5l3 5 4 5 4 5 4 5 2 1 2 1" style="fill:#fefefe;stroke:#fefefe;stroke-linejoin:round;stroke-width:.7"/><path d="m92 849l-4-5-3-1-2-2 5 12 6 12-1-8-1-8" style="fill:#020203;stroke:#020203;stroke-linejoin:round;stroke-width:.7"/><path d="m950 873l1-14-3-28-2-28-3 6-3 6 5 29 5 29" style="fill:#2b2a2c;stroke:#2b2a2c;stroke-linejoin:round;stroke-width:.7"/><path d="m857 868l-1-8 3-4 3-5-5-4-4-5-6 1-5 1 2 7 2 6 4 5 4 5 1 1h2" style="fill:#a3a2a3;stroke:#a3a2a3;stroke-linejoin:round;stroke-width:.7"/><path d="m175 859l-76-29 16 12 16 11 2 3 3 2 19 1h20" style="fill:#020203;stroke:#020203;stroke-linejoin:round;stroke-width:.7"/><path d="m493 852l36-34 13-21 14-21 7-25 8-26-16-18-16-19-5-16-4-17-27-3-27-3-29 4-29 3-14 17-13 16-17 18-17 17 7 8 8 7 17-11 18-12-8 19-8 18 15-2 15-3 2-26 2-26-22 12-22 12 3-8 4-8 30-10 31-11 9-11 10-11 14 7 14 6 21 13 21 13 11 20 12 19-12 19-11 19-28 14-28 13v-17-17l-13-2-13-3-3-2-3-3-1-1v-2l2-3 3-3-2-1-1-1-3-1-2-1v1 1 6 5l-11-3-10-4 6 22 6 21-4 25-3 24 31 4 32 3" style="fill:#a3a2a3;stroke:#a3a2a3;stroke-linejoin:round;stroke-width:.7"/><path d="m758 811l-25-18 9-6 10-6-2-3-2-4-1-1v-2-1-1l-1-2v-2l-2-3-2-4-3-1-2-1h-2-2l-1 2-1 2-3 4-2 4-1 2-1 1-3 3-3 3v1l-13 22-13 21 33-5 33-5" style="fill:#4f4d4f;stroke:#4f4d4f;stroke-linejoin:round;stroke-width:.7"/><path d="m175 859l2-32 14-12 14-12 12-23 12-23-3-27-2-27 2-17 3-18 10-18 10-19 7-21 8-22 1-18 2-19 11-20 11-21-31 29-30 28-12-6-12-6-10-23-10-24 1-1 2-2 5-1 5-2h2l2-1h6 6l1-1 1-2v-1-2l10-13 10-14h1l1-1 5-2 6-2 12-11 13-12 13-20 13-20 18-11 19-11 12 5 13 4-19 16-19 15-8 13-8 13-8 29-7 28 24-17 25-18-6-11-5-12 6-18 7-18 6 2 7 1 6 11 7 11 19-15 20-16-4-27-3-27-14-8-13-9-12 6-12 6-14 13-14 12-16 16-16 16-15 18-15 17-17 14-16 13-12 15-12 15-15 14-15 13 5 17 6 16-10 14-10 13-16 9-16 8-9 23-9 23h-5-5l-3 25-2 25h2 3l2-1 3-1 2-2 3-3h1l1-1v-2-3-2l1-3 3-2 3-3 1-1 2-2h1l-1-4-1-4 2-1 2-1 8-22 8-22 3 1h4l16 6 16 6 7 11 7 10-1 16-1 16 4 21 5 21 1 9 2 8 6 5 7 4-7 24-7 23-34-5-34-6-2-2-1-2-1-1v-1l-3-4-3-5-1-1v-1l-1-1v-1l-26 22-25 21v2 1 3 2 3l1 2 11 6 11 6 38 15 38 14" style="fill:#767476;stroke:#767476;stroke-linejoin:round;stroke-width:.7"/><path d="m131 853l-32-23-11-6-11-6 1 1 1 1 1 3 2 2-1 5v4l-2 3-1 2 2 1 3 1 2 2 3 1 2 3 2 2 19 2 20 2" style="fill:#a3a2a3;stroke:#a3a2a3;stroke-linejoin:round;stroke-width:.7"/><path d="m120 837l13-2v-5-6l-1-6-1-6-4-4-4-5v-2l1-3-1-3-1-4v-1-2l1-2 1-2-1-4v-4l-3 4-3 3-2 8-1 7-1 7v7l1 4 2 4v6l1 5 1 3 2 3" style="fill:#4f4d4f;stroke:#4f4d4f;stroke-linejoin:round;stroke-width:.7"/><path d="m817 834l12-3 4-4 4-5-3-4-3-4 2-2 3-2-7 1h-7l-2 6-1 5-2 5-1 5v1l1 1" style="fill:#a3a2a3;stroke:#a3a2a3;stroke-linejoin:round;stroke-width:.7"/><path d="m538 777l23-38-12-19-11-20-21-13-21-13-14-6-14-7-10 11-9 11 24 3 24 3 19 15 20 15 1 6 1 6-2 7-2 7-20-12-20-13-19 23-19 22 13 3 13 2v17 17l28-13 28-14" style="fill:#767476;stroke:#767476;stroke-linejoin:round;stroke-width:.7"/><path d="m207 792l14-47-7-4-6-5-2-8-1-9-5-21-4-21 1-16 1-16-7-10-7-11-16-6-16-6h-4l-3-1-8 22-8 22 2 3 2 2v2 1 2l1 1h4 4l1-1 1-1 2-3 3-3 1-8 1-8 7-2 7-2-2 10-2 10 17 30 17 29-14 13-14 12-3 1-2 1-4 1h-3l-1 1-1 1-10 10-9 9 1 3 2 2v2l1 2v3l1 3 34 6 34 5" style="fill:#4f4d4f;stroke:#4f4d4f;stroke-linejoin:round;stroke-width:.7"/><path d="m718 778l8-19 3-1 4-2h2 2l2 1 3 1 2 4 2 3v2l1 2 13 12 13 11 15-10 15-11 4-18 4-18-31-1-30-2-23 13-22 12 2-8 2-9-7-9-6-10-11 15-11 15 3 4 3 4v2l1 2 1 5 2 4-1 2v1 12 12 3l1 2 1 3 1 3 1 3 2 3 1 3 2 2 13-21 13-22" style="fill:#2b2a2c;stroke:#2b2a2c;stroke-linejoin:round;stroke-width:.7"/><path d="m831 777l-6-9h-1l-1-1 4 5 4 5" style="fill:#a3a2a3;stroke:#a3a2a3;stroke-linejoin:round;stroke-width:.7"/><path d="m870 768l-20-36 21-9 21-9-2-1-1-1-2-2-2-3h1 1 1 2l-25 1-24 1h-6l-5-1h-1-1l-5-1-4-1h-4-3l2 12 2 12 26 28 26 27-15-4-14-4v2 2h-2-1l17-6 17-7" style="fill:#4f4d4f;stroke:#4f4d4f;stroke-linejoin:round;stroke-width:.7"/><path d="m1211 807v1l6-1 7-2 1-1 5-2 5-2v-1-1-8-9l-7-1-7-2-6 1-5 1 1 8 1 8-1 6v5" style="fill:#fefefe;stroke:#fefefe;stroke-linejoin:round;stroke-width:.7"/><path d="m76 805l51-43 3-25 4-25 1-2 1-3-18-1-18-1h-4l-4-1h-1v-1-4l1-4 3-1 3-2 1-1 2-25 3-25h-27-27l14 17 15 16-4 13-3 13-2 25-1 24 3 28 4 28" style="fill:#a3a2a3;stroke:#a3a2a3;stroke-linejoin:round;stroke-width:.7"/><path d="m158 803l9-4 4-3 4-4-4-5-4-5-2 6-2 5-4 4-3 4 1 1 1 1" style="fill:#767476;stroke:#767476;stroke-linejoin:round;stroke-width:.7"/><path d="m127 801l7-8-1-4-1-5h-4-4l-1 2-1 2v2 1l1 4 1 3 1 2 1 1h1" style="fill:#a3a2a3;stroke:#a3a2a3;stroke-linejoin:round;stroke-width:.7"/><path d="m683 775v-1l-3-4-3-4v-1l-4-1-4-1v2 1 7 6 1l1 1 1 3 1 3v1h1l1 1 1 1 3 3 4 3v2l1 1v-12-12" style="fill:#4f4d4f;stroke:#4f4d4f;stroke-linejoin:round;stroke-width:.7"/><path d="m507 798l5-6-5-3-5-4-5 2-5 2 6 3 6 2 1 2 2 2" style="fill:#4f4d4f;stroke:#4f4d4f;stroke-linejoin:round;stroke-width:.7"/><path d="m767 792h6l-13-11-13-12v1 1 2l1 1 2 4 2 3 1 2 2 1 2 3 3 2 2 2 3 1h1 1" style="fill:#020203;stroke:#020203;stroke-linejoin:round;stroke-width:.7"/><path d="m944 709l-27-35-2-29-1-30-13 6-12 6 3-23 3-23-10 5-9 5-16-2-16-2-11 1h-10l20 17 20 16-11-9-11-10 21 14 21 13-5 28-4 27-17 11-17 10v1l1 1v1 1l24-1 25-1 11 14 12 14 8 6 9 5 5 19 6 19 1-37 2-38" style="fill:#2b2a2c;stroke:#2b2a2c;stroke-linejoin:round;stroke-width:.7"/><path d="m868 785l-25-26-3 4-3 3-2 1h-1v3l1 2 1 2 2 2v1h1l14 4 15 4" style="fill:#2b2a2c;stroke:#2b2a2c;stroke-linejoin:round;stroke-width:.7"/><path d="m385 788l9-6v-6l1-6-5-4-5-4-5 3-4 3-1 7v7l5 3 5 3" style="fill:#fefefe;stroke:#fefefe;stroke-linejoin:round;stroke-width:.7"/><path d="m816 730l-59-26-28 7-28 6-1 1h-1l-2 1h-1v1 1l6 10 7 9-2 9-2 8 22-12 23-13 30 2 31 1 16 12 16 12 12 13 13 13-26-27-26-28" style="fill:#020203;stroke:#020203;stroke-linejoin:round;stroke-width:.7"/><path d="m718 778v-1l3-3 3-3 1-1 1-2 2-4 3-4 1-2 1-2-4 2-3 1-4 10-4 9" style="fill:#020203;stroke:#020203;stroke-linejoin:round;stroke-width:.7"/><path d="m839 781v-4h-1v-1l-2-2-1-2-1-2v-3l-11-6-11-7 2 1 2 1 1 1 1 1 2 5 3 4 1 1h1l3 5 3 4 1 1h1l1 2 2 1h1 2" style="fill:#020203;stroke:#020203;stroke-linejoin:round;stroke-width:.7"/><path d="m139 781l-1-6-1-2v-2l-2-2-1-3v-3l1-3 3-1 3-1 2-3 2-3 2-1 2-2 2-1 2-1 1-1 1-1h3l4-1 2-1 3-1-17-15-16-15-4 25-3 25v1l1 1v1l1 1 3 5 3 4v1l1 1 1 2 2 2" style="fill:#020203;stroke:#020203;stroke-linejoin:round;stroke-width:.7"/><path d="m777 742l-13 21 2 8 3 8 4-18 4-19" style="fill:#020203;stroke:#020203;stroke-linejoin:round;stroke-width:.7"/><path d="m683 774v1-1l1-2-2-4-1-5-1-2v-2l-3-4-3-4v-1-4l1-4 1-2 1-2 2-3 2-4 1-1 2-2h-2l-2-1-2 2-2 1-1 2-1 1-2 3-2 2-1 4v4 3 2 6 6l4 1 4 1v1l3 4 3 4" style="fill:#020203;stroke:#020203;stroke-linejoin:round;stroke-width:.7"/><path d="m1119 775v-11-1-2l3-1 4-2h1 2l-7-9-7-9 2 18 2 17" style="fill:#4f4d4f;stroke:#4f4d4f;stroke-linejoin:round;stroke-width:.7"/><path d="m803 771l5-11 2-3 2-3 11 7 11 6h1l2-1 3-3 3-4-16-12-16-12-4 18-4 18" style="fill:#4f4d4f;stroke:#4f4d4f;stroke-linejoin:round;stroke-width:.7"/><path d="m95 767l8-7 5-3 5-4v-7l1-8v-7-8l-5 3-5 2-3 6-3 6-2 7-2 6v7l1 7" style="fill:#cfcecf;stroke:#cfcecf;stroke-linejoin:round;stroke-width:.7"/><path d="m446 760l-11-44 7-11 7-11h-4-3-4-3l-5 1-5 1-2 26-2 26 2 3 2 2 10 4 11 3" style="fill:#767476;stroke:#767476;stroke-linejoin:round;stroke-width:.7"/><path d="m134 766l19-19-2 1-2 1-2 2-2 1-2 3-2 3-3 1-3 1-1 3v3" style="fill:#767476;stroke:#767476;stroke-linejoin:round;stroke-width:.7"/><path d="m456 765l38-45 20 13 20 12-18-16-17-17-25-9-25-9-7 11-7 11 9 18 10 17-3 3-2 3v2l1 1 3 3 3 2" style="fill:#4f4d4f;stroke:#4f4d4f;stroke-linejoin:round;stroke-width:.7"/><path d="m1229 762l6 1v-5-5-3-4-5-5-4-4-5-5-3-4-5-5-4-4-4-5-4-4-5-5-3-4-5-5-4-4-5-5-3-4-5-5-4-4-4-5-4-4h-5l-4-1h-2l-1-1-6-1-5-1h-2l-1-1h-6-6-2-2l-5-1-5-2h-2l-1-1-1 2-1 1 1 1 1 1 3 4 4 3 1 1 1 1 2 5 2 4 1 1 1 1 2 5 3 4 1 1 1 1 2 5 2 4v2l1 1 1 6 1 5v2 2l-3 5-2 4v2 2l3 4 3 3v2l1 1 1 2 2 2 2 1 3 1 1 3 1 2 2 3 3 2-1 3v2l-2 4-1 4-2 2-1 2-3 3-3 2-1 2-1 2v5l1 5-1 3-1 2-2 4-1 4v3 3l1 5 1 4 1 2 1 2 2 3 3 3 2 2 2 1 4 2 4 1h1" style="fill:#fefefe;stroke:#fefefe;stroke-linejoin:round;stroke-width:.7"/><path d="m446 760v-11-1-1l2 1 3 1 1 1 2 1-10-17-9-18 5 22 6 22" style="fill:#020203;stroke:#020203;stroke-linejoin:round;stroke-width:.7"/><path d="m913 735l-23-28h-2-1-1-1l2 3 2 2 1 1 2 1 4 3 4 2 2 3 2 3 4 5 5 5" style="fill:#020203;stroke:#020203;stroke-linejoin:round;stroke-width:.7"/><path d="m538 731l-31-34-5-4-5-4-24-3-24-3-31 11-30 10-4 8-3 8 22-12 22-12 5-1 5-1h3 4 3 4l25 9 25 9 17 17 18 16 2-7 2-7" style="fill:#020203;stroke:#020203;stroke-linejoin:round;stroke-width:.7"/><path d="m1190 736h-8l-1-2-1-3v-2l1-3v-1l1-2-3 1-2 1-2-1-1-1-2-2-1-3v1 1l-2 5-2 5 1 3 1 2 10 1h11" style="fill:#767476;stroke:#767476;stroke-linejoin:round;stroke-width:.7"/><path d="m167 742l28-25-23-29-23-30-3 3-2 3-1 1-1 1h-4-4l2 12 3 11-1 3-1 2v3l1 3v2 1l-1 2-1 2-1 3-1 2 16 15 17 15" style="fill:#2b2a2c;stroke:#2b2a2c;stroke-linejoin:round;stroke-width:.7"/><path d="m674 750v1l11-15 11-15v-1-1l-6 1-6 1-1 1h-1l-1 3-1 2 2 1h2l-2 2-1 1-2 4-2 3-1 2-1 2-1 4v4" style="fill:#4f4d4f;stroke:#4f4d4f;stroke-linejoin:round;stroke-width:.7"/><path d="m1140 742l29-7-1-2-1-3 2-5 2-5v-1-1l-16 12-15 12" style="fill:#a3a2a3;stroke:#a3a2a3;stroke-linejoin:round;stroke-width:.7"/><path d="m445 739l8-7-6-3-5-3-3 2-2 1 3 5 4 5h1" style="fill:#2b2a2c;stroke:#2b2a2c;stroke-linejoin:round;stroke-width:.7"/><path d="m670 738l4-5 1-1 1-2 2-1 2-2 1-2 1-3h1l1-1 6-1 6-1h1l2-1h1l1-1 20-17 21-17 24-4 24-4 30 1h30l-9-19-9-19-10-10-9-11-15-17-15-18-16-16-15-17-8-26-8-26-4-28-3-28-2-2-2-3-1-1v-1l-17-7-17-7 1-3 1-3-2-4-2-5-26 1-26 1-4 1h-3l19 13 19 12 18 15 19 15 11 20 12 19 2 21 2 20 17 17 17 17 13 17 14 16 12 16 13 16 7 18 8 17-28-6-28-6-19 5-19 4-23 12-22 11-12 21-11 20" style="fill:#767476;stroke:#767476;stroke-linejoin:round;stroke-width:.7"/><path d="m1182 736h8l1-2 1-3v-3-3l1-2 1-3-1-1-1-2-3-1-3-2-2 3-2 3v2 1l-1 2v1l-1 3v2l1 3 1 2" style="fill:#a3a2a3;stroke:#a3a2a3;stroke-linejoin:round;stroke-width:.7"/><path d="m538 731l-2-12-20-15-19-15 5 4 5 4 15 17 16 17" style="fill:#4f4d4f;stroke:#4f4d4f;stroke-linejoin:round;stroke-width:.7"/><path d="m816 730l-4-24-13-6-12-7-15 6-15 5 29 13 30 13" style="fill:#2b2a2c;stroke:#2b2a2c;stroke-linejoin:round;stroke-width:.7"/><path d="m161 658l1-5-1-3-1-4-2-2-1-2h-3-3l-1 8-1 8 23 30 23 29-17-29-17-30" style="fill:#020203;stroke:#020203;stroke-linejoin:round;stroke-width:.7"/><path d="m134 666l-1-3v-1-2l-2-2-2-3-2 1-2 1 1 4 1 4v3l1 3v5l1 4 1 2 2 2 3 2 3 2v1h1l-3-11-2-12" style="fill:#020203;stroke:#020203;stroke-linejoin:round;stroke-width:.7"/><path d="m701 717l56-13 15-5 15-6h1l15 2 15 2 2 1 2 1 2 1 3 1 4 1 4 1 2 1 3 1 17-10 17-11-6-31-5-32-20-16-20-17h-1l-1-1-17-13-16-13-1-4v-4l-2-2-2-2-11-20-10-21-1-4-1-5v-2l1-2 1-5 1-5-1-2v-3l-1-3-1-3h-2l-1-1-4-2-4-3-2 1h-1l-4 3-3 2-1 3v2l-1 4v4 4 4l-1 1v1l8 26 8 26 15 17 16 16 15 18 15 17 9 11 10 10 12 20 12 20-3-1-3-1h-30l-30-1-24 4-24 4-21 17-20 17" style="fill:#4f4d4f;stroke:#4f4d4f;stroke-linejoin:round;stroke-width:.7"/><path d="m901 710l2-9-1-6-1-7-2-5-2-5 4-3 5-3-3-6-2-7-3-3-3-4v9 8l-5 5-4 4v5l1 5 4 4 5 3 1 5 1 4 1 3 2 3" style="fill:#4f4d4f;stroke:#4f4d4f;stroke-linejoin:round;stroke-width:.7"/><path d="m136 707l2-4v-1-2l-1-3v-3h-1-3l-3-1h-1v-1l-2-3-1-3h-3l-2-1h-2-2l-1 2v2l-2 2-1 2-3 3-3 2-2 2-1 1-2 2-2 2 18 1 18 1" style="fill:#767476;stroke:#767476;stroke-linejoin:round;stroke-width:.7"/><path d="m830 708l11 1v-1-1l-1-1v-1l-3-1-2-1-4-1-4-1-3-1-2-1-2-1-2-1h-3-2v-1h-3-2l-5-1-4-1h-4-3-2l-2-1h-1l12 7 13 6h3 4l4 1 5 1h1 1" style="fill:#020203;stroke:#020203;stroke-linejoin:round;stroke-width:.7"/><path d="m937 706l-1-8-5-4-4-4-5-4-5-4-1 3-1 2 5 4 5 4 4 5 4 4 2 1 2 1" style="fill:#020203;stroke:#020203;stroke-linejoin:round;stroke-width:.7"/><path d="m92 704l8 1 2-2 2-2 1-1 2-2 3-2 3-3 1-2 2-2v-2l1-2-1-1v-1l-1 1h-1l-3 3-2 2-3 1-2 1h-3-2l-1 1-3 2-3 1-1 4v4 1h1" style="fill:#020203;stroke:#020203;stroke-linejoin:round;stroke-width:.7"/><path d="m813 696v1h2 3l-15-2-15-2 2 1h2 3 4l4 1 5 1h2 3" style="fill:#2b2a2c;stroke:#2b2a2c;stroke-linejoin:round;stroke-width:.7"/><path d="m1150 696l1-5h-1-1-2l-2-1v-8-8h7l7-1 1 1h1 6l6-1 1-1 3-2 4-2-15-20-15-20 6 14 7 14-15 1-15 1-2 6-2 5 10 14 10 13" style="fill:#2b2a2c;stroke:#2b2a2c;stroke-linejoin:round;stroke-width:.7"/><path d="m130 693l6 1h1l1-2 1-3h-1v-1l-3-2-3-2-2-2-1-2-1-4v-5l-1-3v-3h-1l-2 2-1 1-3 3-3 2-1 3v2 3 2 1l1 1h2 2l2 1h3l1 3 2 3v1h1" style="fill:#4f4d4f;stroke:#4f4d4f;stroke-linejoin:round;stroke-width:.7"/><path d="m1158 691l14 1 4-4 4-5 1-5 2-6-1-2-1-2-4 2-3 2-1 1-6 1h-6 1l2 2 2 1 4 1 4 1-2 1-2 1-5 1-4 1-3 1h-2v4 3h1 1" style="fill:#a3a2a3;stroke:#a3a2a3;stroke-linejoin:round;stroke-width:.7"/><path d="m1145 690l4 1v-1l-1-4-1-5h2l3-1 4-1 4-2 2 1h3l1-1-2-1-2-2h-1-1l-1-1-7 1h-7v8 8" style="fill:#4f4d4f;stroke:#4f4d4f;stroke-linejoin:round;stroke-width:.7"/><path d="m1149 690v1h1 1 2 3v-3-4h2l3-1 4-1 5-1 2-1 2-1-4-1-4-1-1 1h-3l-2-1-4 2-4 1-3 1h-2l1 5 1 4" style="fill:#767476;stroke:#767476;stroke-linejoin:round;stroke-width:.7"/><path d="m883 629l-42-27 11 10 11 9 5 32 6 31 4-27 5-28" style="fill:#020203;stroke:#020203;stroke-linejoin:round;stroke-width:.7"/><path d="m856 678l-24-40 9 19 9 19 3 1 3 1" style="fill:#020203;stroke:#020203;stroke-linejoin:round;stroke-width:.7"/><path d="m1201 659l-1-4-2-1-1-1-18-18-18-18v1 1l9 12 10 12 10 8 11 8" style="fill:#4f4d4f;stroke:#4f4d4f;stroke-linejoin:round;stroke-width:.7"/><path d="m165 638l-14 4h3 3l1 2 2 2 1 4 1 3-1 3v2l2-10 2-10" style="fill:#767476;stroke:#767476;stroke-linejoin:round;stroke-width:.7"/><path d="m864 669l10-3-4-5-3-5-5 5-4 4 3 2 3 2" style="fill:#767476;stroke:#767476;stroke-linejoin:round;stroke-width:.7"/><path d="m1200 655l-13-38-16-18-16-19-7-10-6-11v-8l1-8-9-23-8-23-2 18-2 18h-2l-1-1-1 4-1 4v3l1 3v6 5h-2-2l-1-1-1-1-2-1-2-1-2 3-2 2 1 1 2 1 1 2 1 1 3 3 4 3v1l1 1 22 23 22 23 18 18 18 18 1 1 2 1" style="fill:#a3a2a3;stroke:#a3a2a3;stroke-linejoin:round;stroke-width:.7"/><path d="m182 644l-2-11h5 6l-5-3-5-3-2-6-2-7-4 5-3 4 1 7 1 6 4 4 5 4h1" style="fill:#020203;stroke:#020203;stroke-linejoin:round;stroke-width:.7"/><path d="m1161 619v-2l-22-23-22-23 14 14 15 13-1 2v1l-1 2v2l2 4 3 3 1 1 2 1 4 3 5 2" style="fill:#767476;stroke:#767476;stroke-linejoin:round;stroke-width:.7"/><path d="m876 617l3-10-6-2-5-2v6l1 5 3 2 4 1" style="fill:#4f4d4f;stroke:#4f4d4f;stroke-linejoin:round;stroke-width:.7"/><path d="m1146 598l-29-27-1-1v-1l-4-3-3-3-4 11-3 11 9 9 9 9 13-2 13-3" style="fill:#2b2a2c;stroke:#2b2a2c;stroke-linejoin:round;stroke-width:.7"/><path d="m224 602l12-3 5-3 5-4-2-2-1-3-4 5-4 4-5-4-5-4-4-4-4-5v4 3l3 6 4 5v3 2" style="fill:#4f4d4f;stroke:#4f4d4f;stroke-linejoin:round;stroke-width:.7"/><path d="m821 587l-34-34v4l1 4 16 13 17 13" style="fill:#2b2a2c;stroke:#2b2a2c;stroke-linejoin:round;stroke-width:.7"/><path d="m847 580l-5-6-5-4-4-4-7-1-6-2 4 5 4 4 6 3 6 3 3 1 4 1" style="fill:#2b2a2c;stroke:#2b2a2c;stroke-linejoin:round;stroke-width:.7"/><path d="m289 510v-3l1-3 2-3 7-28 8-29 8-13 8-13 19-15 19-16-13-4-12-5-19 11-18 11-13 20-13 20-13 12-12 11h5 5l18 2 18 2-29 4-28 3-2 1h-2l-2 2-1 1 2 35 2 35-25-20-25-20 10 24 10 23 12 6 12 6 30-28 31-29" style="fill:#4f4d4f;stroke:#4f4d4f;stroke-linejoin:round;stroke-width:.7"/><path d="m1114 557h4v-5-6l-1-3v-3l1-4 1-4 1 1h2l-3-2-3-3-2 7-2 6v7 7l1 1 1 1" style="fill:#767476;stroke:#767476;stroke-linejoin:round;stroke-width:.7"/><path d="m762 555h13v-2-3l-6-2-5-3-1 5-1 5" style="fill:#767476;stroke:#767476;stroke-linejoin:round;stroke-width:.7"/><path d="m1112 555v-14l2-6 2-7 3 3 3 2 2-18 2-18h-1v-1l-3-3-3-3-2-2-1-3v-3-4-1l1-1-3-1-2-2v-1l-2-5-1-6-1-1-1-1-1-1-1-2-3 2-3 1-3 1-2 1v5l1 4 1 3 2 2v3 2 2l1 2v1h1l3 5 3 4v1l1 1 1 1 1 1v20 19 2 2 5l1 4-1 2-1 1 2 1 2 1" style="fill:#4f4d4f;stroke:#4f4d4f;stroke-linejoin:round;stroke-width:.7"/><path d="m234 548l-47-23 17-14 18-15 4-9 4-9 1-1 2-2h2l2-1 10-5 11-6h-5-5l-6 2-5 2-1 1h-1l-4 4-4 3-4 5-3 5-3 5-2 5v2 1l-1 2-1 1h-6-6l-2 1h-2l-5 2-5 1-2 2-1 1 25 20 25 20" style="fill:#020203;stroke:#020203;stroke-linejoin:round;stroke-width:.7"/><path d="m1109 537v-39h-12-11l6 18 6 17 5 2 6 2" style="fill:#2b2a2c;stroke:#2b2a2c;stroke-linejoin:round;stroke-width:.7"/><path d="m783 549l20-31-21-5-20-5 10 21 11 20" style="fill:#2b2a2c;stroke:#2b2a2c;stroke-linejoin:round;stroke-width:.7"/><path d="m234 548l-4-70-4 9-4 9-18 15-17 14 23 12 24 11" style="fill:#2b2a2c;stroke:#2b2a2c;stroke-linejoin:round;stroke-width:.7"/><path d="m832 547l9-6-6-2-6-3-2 4-2 4 3 2 4 1" style="fill:#2b2a2c;stroke:#2b2a2c;stroke-linejoin:round;stroke-width:.7"/><path d="m1183 536l2-7-3-5-3-6-5 3-5 3 4 5 4 4 3 2 3 1" style="fill:#fefefe;stroke:#fefefe;stroke-linejoin:round;stroke-width:.7"/><path d="m1064 490l34-10v-2-3l-2-2-1-3-1-4v-5l2-1 3-1 3-1 3-2-8-18-7-18-5 16-5 15-1 3v3h-5-5l-7-5-7-5h1l2-1-6-23-6-24-2-2-1-2h3 4l-3-3-2-3 4-3 4-4-19-2-18-2v6 6l12 20 12 20 6 26 6 25 6 5 6 4" style="fill:#2b2a2c;stroke:#2b2a2c;stroke-linejoin:round;stroke-width:.7"/><path d="m1080 532l12-3v-4l1-4h-8-8l-5-4-4-4 5-3 6-4 1-2 1-3h-5l-5-1-5 5-4 4-1 7v7l5 2 5 2 4 3 5 2" style="fill:#2b2a2c;stroke:#2b2a2c;stroke-linejoin:round;stroke-width:.7"/><path d="m294 467l-36-4-11 6-10 5 28-3 29-4" style="fill:#2b2a2c;stroke:#2b2a2c;stroke-linejoin:round;stroke-width:.7"/><path d="m736 497l1-2v-4-4-4l1-4v-2l1-3-7-19-7-19 2 3 2 2 3 28 4 28" style="fill:#020203;stroke:#020203;stroke-linejoin:round;stroke-width:.7"/><path d="m1125 496l-12-90v25l1 25 3 4 3 4v1 1l-2 5-1 5-1 1v1 4 3l1 3 2 2 3 3 3 3" style="fill:#a3a2a3;stroke:#a3a2a3;stroke-linejoin:round;stroke-width:.7"/><path d="m215 495l5-10 3-5 4-5 4-3 4-4-10 14-10 13" style="fill:#4f4d4f;stroke:#4f4d4f;stroke-linejoin:round;stroke-width:.7"/><path d="m1112 473v-1 1" style="fill:#767476;stroke:#767476;stroke-linejoin:round;stroke-width:.7"/><path d="m1117 476l3-10v-1-1l-3-4-3-4-12-18-12-18 7 18 8 18 1 2 1 1 1 1 1 1 1 6 2 5v1l2 2 3 1" style="fill:#020203;stroke:#020203;stroke-linejoin:round;stroke-width:.7"/><path d="m739 474l7-5h1l2-1 4 3 4 2 1 1h2l-5-9-4-9 1-9 2-10-8-10-7-11h4l4-1-23-8-22-9 10-5 10-6-5-6-5-6-1-8-1-8-6-10-6-11-3-12-3-12 2 7 3 6-23 5-23 5 13 15 13 15-11-3-10-4 4 1h4l-21-7-20-7v2 1l-1 4-1 3-11-3-11-3-5 4-5 3-14-21-13-22-21 7-20 7-14 20-14 19v4 3 3l1 3 1-3 2-4 1 2 2 1 23 1 23 1 11 4 12 4 32-2 32-3 16 10 16 9 11 2 12 2 2 5 2 4 16 10 16 10v1l1 1 7 19 7 19" style="fill:#2b2a2c;stroke:#2b2a2c;stroke-linejoin:round;stroke-width:.7"/><path d="m1069 457l-1-1h-1l-1-1h-2l-1-1-4-3-3-3h-1v-1l7 5 7 5" style="fill:#4f4d4f;stroke:#4f4d4f;stroke-linejoin:round;stroke-width:.7"/><path d="m1068 456l1 1h5 5v-3l1-3-1-3v-3h-1v-1l-2-1-1-2-1-1v-1l-3-1-2-2h-4-3l2 4 3 4v4 3l-5-2-4-3-2 1h-1v1h1l3 3 4 3 1 1h2l1 1h1" style="fill:#020203;stroke:#020203;stroke-linejoin:round;stroke-width:.7"/><path d="m1114 456l-1-50-17-14-17-15-13 3-13 2-4 4-4 3 2 3 3 3 13 11 13 11v1l1 1 2 1 1 3 1 3-1 5v4l-1 3v2 3 2 3l1 3 5-15 5-16 12 18 12 18" style="fill:#4f4d4f;stroke:#4f4d4f;stroke-linejoin:round;stroke-width:.7"/><path d="m1067 444l-5-8h3 4l-1-13-1-13-3-2-2-2-1-1-1-1-5-2-4-2h-2l-2-1h-1l6 24 6 23 4 3 5 2v-3-4" style="fill:#4f4d4f;stroke:#4f4d4f;stroke-linejoin:round;stroke-width:.7"/><path d="m806 405l-24-2 17 17 18 17-6-16-5-16" style="fill:#2b2a2c;stroke:#2b2a2c;stroke-linejoin:round;stroke-width:.7"/><path d="m1078 444l1 1v-2-3-1l-2-1-1-1-1-1-1-1-3-4-2-4-1-1-1-1 1-4 1-4 1 1h2 2 2v-1h-1v-1l-2-1-1-2h-2l-1-1-1-1-1-1 1 13 1 13 2 2 3 1v1l1 1 1 2 2 1" style="fill:#a3a2a3;stroke:#a3a2a3;stroke-linejoin:round;stroke-width:.7"/><path d="m1079 439v1-2l1-3v-4l1-5-1-3-1-3-2-1-1-1h-2-2-2l-1-1-1 4-1 4 1 1 1 1 2 4 3 4 1 1 1 1 1 1 2 1" style="fill:#cfcecf;stroke:#cfcecf;stroke-linejoin:round;stroke-width:.7"/><path d="m1138 438l9-6 2-6 2-7-2-7-2-7-4-5-3-5-3-6-3-6-4-3-3-3 1 8 1 7 3 6 3 6v7l1 7v8 8l1 2 1 2" style="fill:#a3a2a3;stroke:#a3a2a3;stroke-linejoin:round;stroke-width:.7"/><path d="m724 434l-32-20-1 3-1 3 17 7 17 7" style="fill:#4f4d4f;stroke:#4f4d4f;stroke-linejoin:round;stroke-width:.7"/><path d="m401 381l-19-3 9 2 10 1" style="fill:#4f4d4f;stroke:#4f4d4f;stroke-linejoin:round;stroke-width:.7"/><path d="m1075 416l1 1-13-11-13-11h-4-3l1 2 2 2h1l2 1h2l4 2 5 2 1 1 1 1 2 2 3 2 1 1 1 1 1 1h2l1 2 2 1" style="fill:#020203;stroke:#020203;stroke-linejoin:round;stroke-width:.7"/><path d="m688 405l-23-4-16-9-16-10-32 3-32 2-12-4-11-4-23-1-23-1 18 8 19 8 43 7 43 6 3 1 3 1h3l4-1 26-1 26-1" style="fill:#4f4d4f;stroke:#4f4d4f;stroke-linejoin:round;stroke-width:.7"/><path d="m623 406l-86-13-19-8-18-8-2-1-1-2-2 4-1 3-1-3v-3-3-4l7-19 7-20 21-20 22-20 1-4 1-5-1-1-1-2-2-4-2-4-1-2v-2-1-1l-1-2-1-2h-1v-1h-2l-2-1-2-1-2-1-22 4-21 3-11 30-11 30 16 2 16 1-17 18-16 17-9 5-9 4 14 6 14 6 18 8 19 7 24 4 24 3 30 2 30 1" style="fill:#767476;stroke:#767476;stroke-linejoin:round;stroke-width:.7"/><path d="m665 401l-32-19 16 10 16 9" style="fill:#020203;stroke:#020203;stroke-linejoin:round;stroke-width:.7"/><path d="m768 388l9-6-3-5-2-5-4-5-4-5h-5l-5-1-1 7v6l4 5 4 4 3 3 4 2" style="fill:#2b2a2c;stroke:#2b2a2c;stroke-linejoin:round;stroke-width:.7"/><path d="m350 376l16 1v-4-5l-7-1-6-2-2 6-1 5" style="fill:#a3a2a3;stroke:#a3a2a3;stroke-linejoin:round;stroke-width:.7"/><path d="m677 367l-3-2h-2l-1-1-4-1-3-2h-4l-4-1 10 4 11 3" style="fill:#020203;stroke:#020203;stroke-linejoin:round;stroke-width:.7"/><path d="m599 351l-1-5-1-3v-3l-2-3-2-4-1-2-1-2-1-2-1-2 1-4 1-5-2-2-1-3-3-2-3-2h-1l-1-1-11-16-11-17-23-26-23-27h-4l-4-1-2 2-2 1-3 2-3 2v5 5l3-1 3-2v-1l1-2 3-1 4-1 17 7 18 7 2 3 2 3 1 4 1 3 1 3 1 3-2 2-1 2-2-1-1-1v1 1 2l1 2 2 4 2 4 1 2 1 1-1 5-1 4-15 20-14 20 20-7 21-7 13 22 14 21 5-3 5-4" style="fill:#020203;stroke:#020203;stroke-linejoin:round;stroke-width:.7"/><path d="m561 372l7-8 3-4 3-5-2-7-1-8-2 5-1 5-2 8-1 7-2 4-2 3" style="fill:#020203;stroke:#020203;stroke-linejoin:round;stroke-width:.7"/><path d="m870 372l12-3h8l8-1 7-2 7-2h8l8-1 6 3 7 2-2-5-2-6-6-2-6-3-9 1h-8l-7 2-7 1-7 2-7 2-5 4-4 4-1 2v2" style="fill:#2b2a2c;stroke:#2b2a2c;stroke-linejoin:round;stroke-width:.7"/><path d="m1072 373l-56-25-22-13-21-13-19-16-18-17-22-15-21-15-2 4-2 3 2 3 2 2 16 8 17 8 31 31 31 30 1 1h1l3 1 4 1 24 7 24 7h6 7l5 3 5 3 2 1 2 1" style="fill:#a3a2a3;stroke:#a3a2a3;stroke-linejoin:round;stroke-width:.7"/><path d="m539 371l11-2v-4-5l3-5 4-6-2-6-1-6-6-3-5-4-7 2-6 2-6 3-5 3-3 6-3 6 4 5 4 4 6 3 6 3 3 2 3 2" style="fill:#020203;stroke:#020203;stroke-linejoin:round;stroke-width:.7"/><path d="m493 368l28-39 14-20 15-20-22 20-21 20-7 20-7 19" style="fill:#4f4d4f;stroke:#4f4d4f;stroke-linejoin:round;stroke-width:.7"/><path d="m664 361l7 3 1 1h2l1 1 2 1-13-15-13-15-21-18-20-18-1 10-1 9h1 2l1 1h1l2 5 3 5v1l1 1 1 6 2 5v1l1 1v1l20 7 21 7" style="fill:#4f4d4f;stroke:#4f4d4f;stroke-linejoin:round;stroke-width:.7"/><path d="m1045 365l-48-14 24 7 24 7" style="fill:#767476;stroke:#767476;stroke-linejoin:round;stroke-width:.7"/><path d="m1110 366l10-3-4-4-4-5-6-3-6-3-5-3-5-4-1 4v3l-3 5-2 5 6 1 7 1 5 2 5 2 1 1 2 1" style="fill:#a3a2a3;stroke:#a3a2a3;stroke-linejoin:round;stroke-width:.7"/><path d="m621 357v-1h-1v-1h-1l-2-6-1-7h-1l-2-6-2-6v1 1 3 2l-3 3-3 3-1-5-1-5-6-3-5-3-2-1-1-1 1 2 1 2 1 2 1 2 2 4 2 3v3l1 3v3l1 2 11 3 11 3" style="fill:#4f4d4f;stroke:#4f4d4f;stroke-linejoin:round;stroke-width:.7"/><path d="m965 341v2l-2 5-1 4 1 2 1 1v-7l1-7" style="fill:#2b2a2c;stroke:#2b2a2c;stroke-linejoin:round;stroke-width:.7"/><path d="m358 357l12-3 2-4 3-4 7-1 7-1-7-2-6-2h-8-8l-4 5-3 5 2 4 3 3" style="fill:#4f4d4f;stroke:#4f4d4f;stroke-linejoin:round;stroke-width:.7"/><path d="m621 356v1l1-3 1-4v-1-2-1l-1-1v-1l-2-5-1-6-1-1v-1l-3-5-2-5h-1l-1-1h-2-1v1l1 1 1 4 1 4 2 6 2 6h1l1 7 2 6h1v1h1" style="fill:#020203;stroke:#020203;stroke-linejoin:round;stroke-width:.7"/><path d="m633 354l9-6 1-5 1-6-4-5-4-5-4 3-3 3 1 7 1 7 1 4 1 3" style="fill:#767476;stroke:#767476;stroke-linejoin:round;stroke-width:.7"/><path d="m77 354l12-2v-1l1-1 5-2 5-2v-1l1-1 2-5 3-5v-1l1-1 3-4 3-4v-1l1-1 4-3 4-4h1l1-1 3-4 3-4h1 2l2-4 3-5v-1-2l-3-4-3-5h-1l-1-1-4-3-3-4-1-1v-1l-4-3-4-4h-2-1l-5-2-5-2h-1l-1-1-5-2-4-3-1-1v-1l-6-1-6-2h-1l-1-1-6-1-5-2h-2-1l-7-1-6-1h-2-1l-4 3-4 3-1 1v1l-2 6-1 5-1 1h-1l-2 6-1 6v2 1l-4 3-4 3h-2-1-9-8v8 7 9 8 3 2l2 2 2 2v3 2l5 1 5 1h1 2l3 3 4 3 2 1h2l5 1h6l1 1 2 1 2 2 3 1 1-1 2-1h4 5l1 1 2 1 3-2 4-3h2 3l1 5 2 5" style="fill:#cfcecf;stroke:#cfcecf;stroke-linejoin:round;stroke-width:.7"/><path d="m962 352l3-9v-1-1-1h-2l-2-1-4-2-4-2-1-1-1-2-4-2-4-3h-2l-1-1 1 4 2 4v1h1l-2 2-2 1h-2-1v1l1 1 4 3 4 3h1 2l5 2 5 2 1 1 2 1" style="fill:#4f4d4f;stroke:#4f4d4f;stroke-linejoin:round;stroke-width:.7"/><path d="m988 348l-62-61v2 1l31 29 31 29" style="fill:#767476;stroke:#767476;stroke-linejoin:round;stroke-width:.7"/><path d="m605 343l6-6v-2-3-1-1l-1-4-1-4-1-1v-1l1-9 1-10-9-26-9-26 19-25 19-25h-1v-1l-26 10-25 9 4 29 5 28 2 21 2 21-1 5-1 4 1 1 2 1 5 3 6 3 1 5 1 5" style="fill:#767476;stroke:#767476;stroke-linejoin:round;stroke-width:.7"/><path d="m874 289l14-3-1 2-1 1h-3l-2-1-5-1-5-1-2-1-2-1 2-3 2-4v-1l1-1 13-10 13-11-1-3-1-3-4 2-4 1h-2-2l-3 1-2 1-4 3-3 3 1 1 2 1-3 3-2 2h-2-1l-16 3-16 2v-1l1-2-3-3-2-3h-2l-2-1-2-3-2-4-8-23-7-24v3 2 1h1l2 6 2 6-2 5-2 5-1 4-1 3v4l1 4-3 1h-2l-4-1-3-1-4 3-4 3-17-11-17-12h-2l-1-1-3-3-3-3-1-1-1-1-2-1-2-1-3 2-2 1-1 1h-1-4-4l5 8 5 8-9-9-8-9-14-8-13-8-29 5-29 5v-1l1-2-3 1-2 1-1 5v4l1 2 1 1h2 3l24 3 24 3 15 20 16 19 21 14 21 14 21 4 22 4-14-16-13-16-2 1-1 1-1 2-1 1-4 1-4 1h-2l-2-1-6-5-6-5-5-5-4-6h-11l-10-1 10-3 10-3 5 4 5 4 3 6 3 6 2 3 3 3 7-3 8-4 36 14 36 13 6 5 6 5 21 12 21 12-10-23-10-23" style="fill:#2b2a2c;stroke:#2b2a2c;stroke-linejoin:round;stroke-width:.7"/><path d="m940 338l4-3h-1v-1l-2-4-1-4-2-1-1-2-4-3-3-4-1-1-1-1h-1l-3 3-3 3v1 1l4 5 4 5 4 3 4 3h1 2" style="fill:#767476;stroke:#767476;stroke-linejoin:round;stroke-width:.7"/><path d="m661 312v2l-3 4-3 3-6-1-6-1 9-3 9-4" style="fill:#2b2a2c;stroke:#2b2a2c;stroke-linejoin:round;stroke-width:.7"/><path d="m587 274l-9-57 25-9 26-10-9-16-8-16-27-4-27-4-16 20-15 19-8 9-7 9h15l15-1 9 16 9 16 14 33 14 32 1 3 2 2-2-21-2-21" style="fill:#a3a2a3;stroke:#a3a2a3;stroke-linejoin:round;stroke-width:.7"/><path d="m655 321l6-7v-1-1l-3-4-2-5-4-17-3-18 4-8 5-8-2-3-1-3-2-2-2-3-2-2-2-3-3-2-2-2-3-1-2-2h-2l-1-1h-3-2l-1-1-1-2v-4l1-5 2-1 3-1 4-1 5-1v1h1l-1-3v-3h-1l-1-1-5-3-5-4-19 25-19 25 1 3 2 3h2 2 1 1l4-2 5-2 1-1 1-1-1-3v-4-2-2-1l8 28 8 27-9-2-8-2 16 16 17 15 6 1 6 1" style="fill:#4f4d4f;stroke:#4f4d4f;stroke-linejoin:round;stroke-width:.7"/><path d="m921 320l6-6h1l1 1 1 1v-5-5h-1l-1-1-3-5-2-5v-1-2l1-1 2-1v-1-2l-17-8-16-8v5 4l14 20 14 20" style="fill:#2b2a2c;stroke:#2b2a2c;stroke-linejoin:round;stroke-width:.7"/><path d="m386 308l8 7 3-1 3-2 11-28 11-28 20-21 21-22-21 15-21 14-13 23-12 22-9 13-9 12 4-2 4-2" style="fill:#767476;stroke:#767476;stroke-linejoin:round;stroke-width:.7"/><path d="m534 255l-15-5-5-1-5-1-1 1-1 1h-5l-4-1-2 1-1 1-2 4-1 4-1 2v1l21-3 22-4" style="fill:#4f4d4f;stroke:#4f4d4f;stroke-linejoin:round;stroke-width:.7"/><path d="m400 312l24-44 16-19 16-19 3-8 4-9-21 22-20 21-11 28-11 28" style="fill:#020203;stroke:#020203;stroke-linejoin:round;stroke-width:.7"/><path d="m588 311l-28-65-9-16-9-16-15 1h-15v3 2l23 27 23 26 11 17 11 16 1 1h1l3 2 3 2" style="fill:#767476;stroke:#767476;stroke-linejoin:round;stroke-width:.7"/><path d="m436 305l12-3 3-5 4-5 4-5 4-5 3-5 4-5 2-7 2-7-2-6-2-7-6 1-5 1-4 5-4 5-3 6-3 5-3 6-3 6-3 6-3 5v7 6l1 1h2" style="fill:#fefefe;stroke:#fefefe;stroke-linejoin:round;stroke-width:.7"/><path d="m580 306l-22-33 11 17 11 16" style="fill:#4f4d4f;stroke:#4f4d4f;stroke-linejoin:round;stroke-width:.7"/><path d="m656 303l2-51-5 8-4 8 3 18 4 17" style="fill:#2b2a2c;stroke:#2b2a2c;stroke-linejoin:round;stroke-width:.7"/><path d="m611 237l22 38-11-16-11-17v4l1 3-1 1-1 1-5 2-4 2h-1-1-2-2l1 4 1 3 1 4 1 3 1 3 2 3 1 3 1 3 1 3 2 3 1 1h2l8 2 9 2-8-27-8-28" style="fill:#2b2a2c;stroke:#2b2a2c;stroke-linejoin:round;stroke-width:.7"/><path d="m754 283l-1-2-3-3-2-3-3-6-3-6-5-4-5-4-1 1 1 3 1 3 4 6 5 5 6 5 6 5" style="fill:#020203;stroke:#020203;stroke-linejoin:round;stroke-width:.7"/><path d="m881 288l5 1 1-1 1-2-1-2-1-2-1-1-1-1-4-2-4-3h-2-2l-1 1v1l-2 4-2 3 2 1 2 1 5 1 5 1" style="fill:#4f4d4f;stroke:#4f4d4f;stroke-linejoin:round;stroke-width:.7"/><path d="m758 284l8-2 1-1 1-2 1-1 2-1-2-1-1-2-8 4-7 3v1l1 1 2 1h2" style="fill:#4f4d4f;stroke:#4f4d4f;stroke-linejoin:round;stroke-width:.7"/><path d="m867 266h-2-1-1-7l-7-1h-1v-1h-1l-1-1v2l1 2-4 2-3 1-3 1h-2l16-2 16-3" style="fill:#4f4d4f;stroke:#4f4d4f;stroke-linejoin:round;stroke-width:.7"/><path d="m633 275l-22-38v1 2 2l11 17 11 16" style="fill:#020203;stroke:#020203;stroke-linejoin:round;stroke-width:.7"/><path d="m733 262l-2-6 1-1-10 3-10 3 10 1h11" style="fill:#4f4d4f;stroke:#4f4d4f;stroke-linejoin:round;stroke-width:.7"/><path d="m534 255l4 2 2 1h2l-2-2-1-3-2-2-1-2-1-1v-1h-2l-2-1h-1l-1-1h-2l-2-1h-4l-3-1-2 1h-1l-3 2-2 2h-1l5 1 5 1 7 3 8 2" style="fill:#020203;stroke:#020203;stroke-linejoin:round;stroke-width:.7"/><path d="m835 271l5-1 3-1 4-2-1-2v-2l-1-1v-2l-2-2-2-2v-1-1h-1l-7 1-6 1-1-1v-1h-2-1l2 4 2 3 2 1h2l2 3 3 3-1 2v1" style="fill:#767476;stroke:#767476;stroke-linejoin:round;stroke-width:.7"/><path d="m796 249l-2-1-2-1-1-2-3-2-3-3-1-2v-2l-5-4-4-5-6-2-6-3h-2-1l-3 3-3 2h-1v-1 3l1 3 17 12 17 11 4-3 4-3" style="fill:#020203;stroke:#020203;stroke-linejoin:round;stroke-width:.7"/><path d="m548 265l3-4-1-3-1-3-1-3-1-4-2-3-2-3h-1l-4 3-3 2v1l1 1 1 2 2 2 1 3 2 2v1h1l1 2 1 2 1 1 2 1" style="fill:#4f4d4f;stroke:#4f4d4f;stroke-linejoin:round;stroke-width:.7"/><path d="m849 265l14 1h1 1 1 1 1 2l2-2 3-3-2-1-1-1 3-3 4-3 2-1 3-1-22 2-21 1v1 1l2 2 2 2v2l1 1 1 1h1v1h1" style="fill:#a3a2a3;stroke:#a3a2a3;stroke-linejoin:round;stroke-width:.7"/><path d="m358 260l12-3 5-3 5-4 4-4 5-5 5-3 5-4 4-4 5-5-4-5-3-5-5-3-5-4h-8-8l-6 3-5 3-5 5-4 4-4 5-3 5-2 7-2 6 3 5 3 5 4 2 4 2" style="fill:#fefefe;stroke:#fefefe;stroke-linejoin:round;stroke-width:.7"/><path d="m492 259l3-8 1-1 2-1 4 1h5l1-1 1-1h1l2-2 3-2h1l2-1-1-2v-2l-1-1v-2l-3-3-2-3-2-1-1-1-4 1-3 1-1 2v1l-3 2-3 1-1 2v2 1l-1 5-1 5v3 2 2l1 1" style="fill:#767476;stroke:#767476;stroke-linejoin:round;stroke-width:.7"/><path d="m827 256l13-2-22-36-22-37 1 5 2 4 1 2 1 2 2 4 2 3 1 3 2 3 7 24 8 23h1 2v1l1 1" style="fill:#a3a2a3;stroke:#a3a2a3;stroke-linejoin:round;stroke-width:.7"/><path d="m724 225l-7-2 8 9 9 9-5-8-5-8" style="fill:#020203;stroke:#020203;stroke-linejoin:round;stroke-width:.7"/><path d="m803 251l5-1-1-4v-4l1-3 1-4-1-3-1-3-1-1-1-2-2-1-1-2v4 4l-9 3-9 2v2l1 2 3 3 3 2 1 2 2 1 1 1h1l3 1 4 1" style="fill:#767476;stroke:#767476;stroke-linejoin:round;stroke-width:.7"/><path d="m531 246l4 1 3-2 4-3h1l-18-7-17-7 1 1 2 1 2 3 3 3v2l1 1v2l1 2 3 1h4l2 1h2l1 1h1" style="fill:#2b2a2c;stroke:#2b2a2c;stroke-linejoin:round;stroke-width:.7"/><path d="m802 231v-8l-1-3-1-4h-1v-1l-2-2-1-2-31-1-31-1 2 2 2 1 4 1 4 1 3 1h4l2 3 3 2 1 1 1 1h1 2l6 3 6 2 4 5 5 4 9-2 9-3" style="fill:#a3a2a3;stroke:#a3a2a3;stroke-linejoin:round;stroke-width:.7"/><path d="m809 235l4-10-2-6-2-6h-1v-1-2-3l-2-3-1-3-2-3-2-4-1-2-1-2-2-4-1-5v15 15l1 2 2 2v1h1l1 4 1 3 1 2 2 1 1 2 1 1 1 3 1 3" style="fill:#020203;stroke:#020203;stroke-linejoin:round;stroke-width:.7"/><path d="m751 231l3 1-1-3v-3 1h1l3-2 3-3-1-1-1-1-3-2-2-3h-4l-3-1-4-1-4-1-2-1-2-2-5-1-5-2h-3-2-4-4l14 8 14 7 2 1 2 1 1 1 1 1 3 3 3 3" style="fill:#1e1e20;stroke:#1e1e20;stroke-linejoin:round;stroke-width:.7"/><path d="m717 223l7 2h4 4 1l1-1 2-1 3-2-14-7-14-8h-2-1l-6-3-5-4h-2-1-6-6l-2 1-1 1 4 3 4 2 1 1h2l13 8 14 8" style="fill:#4f4d4f;stroke:#4f4d4f;stroke-linejoin:round;stroke-width:.7"/><path d="m690 207l-3-1-4-2-4-3-21-5-20-5-13-12-13-13 8 16 9 16v1h1l5 4 5 3 1 1h1v3l1 3h-1v-1l-5 1-4 1-1 2v1l29-5 29-5" style="fill:#020203;stroke:#020203;stroke-linejoin:round;stroke-width:.7"/><path d="m708 206l-70-15 20 5 21 5 1-1 2-1h6 6 1 2l5 4 6 3" style="fill:#a3a2a3;stroke:#a3a2a3;stroke-linejoin:round;stroke-width:.7"/><path d="m609 182l-52-8 6 14 7 14 19-10 20-10" style="fill:#cfcecf;stroke:#cfcecf;stroke-linejoin:round;stroke-width:.7"/><path d="m731 191l13-2-3-5-3-6-5 1h-4l1 6 1 5v1" style="fill:#fefefe;stroke:#fefefe;stroke-linejoin:round;stroke-width:.7"/><path d="m713 174l7-8v-7-8l-2-5-2-5-5 3-4 3 1 8 1 8 2 6 2 5" style="fill:#a3a2a3;stroke:#a3a2a3;stroke-linejoin:round;stroke-width:.7"/><path d="m1093 93l9-3h1 2l3-3 4-4v-1-2l1-6 2-6h1 2l1-5 2-6h1l1-1 2-5 2-6v-1l1-1 2-4 3-5v-1-2l2-4 3-5v-1-2l2-5 2-6v-1l1-1v-3-3h-39-39-31-30v4 4l1 8 1 8 6 1h6l4-1 5-1 3 4 3 4 4 4 5 4 5 4 5 4 3 5 4 5 4 4 5 4 2 7 3 6 4 4 5 4 5 4 6 3" style="fill:#cfcecf;stroke:#cfcecf;stroke-linejoin:round;stroke-width:.7"/><path d="m0 57l7-4v-1-2-5-6l4-4 4-5h1l1-1 3-4 3-4v-1l1-1 4 2 4 1h1l1-1 4-1 4-1h1l1-1 3 2 3 1 6 2 6 1v-1-2l3-3 4-4h1l1-1 3-4 4-4h1 2v-2-3h-41-40v1 28 28" style="fill:#cfcecf;stroke:#cfcecf;stroke-linejoin:round;stroke-width:.7"/></svg>